<svg xmlns="http://www.w3.org/2000/svg" xmlns:xlink="http://www.w3.org/1999/xlink" id="svg" versio738n="1.1" width="400" height="400" viewBox="0, 0, 400,400">
    <g id="bootstrap">
		<path style="stroke-dasharray: 1000px" d="M155.469 200.000 L 155.469 261.719 182.828 261.719 C 199.323 261.719,211.693 261.555,213.980 261.307 C 236.488 258.867,249.276 246.432,249.310 226.953 C 249.338 211.461,239.755 200.106,224.050 197.020 C 220.646 196.351,220.438 196.040,223.047 195.520 C 228.381 194.457,235.881 188.805,239.160 183.377 C 247.616 169.380,242.419 150.903,227.889 143.299 C 218.768 138.526,216.617 138.286,182.910 138.284 L 155.469 138.281 155.469 200.000 M208.903 154.915 C 226.139 158.450,229.006 180.429,213.177 187.679 C 207.744 190.168,206.446 190.328,190.137 190.518 L 175.391 190.690 175.391 172.493 L 175.391 154.297 190.641 154.297 C 203.016 154.297,206.460 154.413,208.903 154.915 M211.523 206.365 C 222.223 208.708,227.725 213.791,228.929 222.447 C 230.188 231.501,226.253 239.273,218.646 242.758 C 213.014 245.337,212.218 245.425,192.871 245.598 L 175.391 245.754 175.391 225.576 L 175.391 205.398 192.090 205.582 C 205.094 205.726,209.394 205.899,211.523 206.365 " stroke="white" stroke-width="5" fill="#f7f0fc" fill-rule="evenodd" />
		<path d="M219.459 84.348 L 223.487 84.570 202.394 111.133 L 181.300 137.695 196.802 137.933 C 215.584 138.221,219.985 138.875,227.073 142.434 C 250.163 154.028,248.389 187.157,224.240 195.337 C 222.079 196.068,221.290 196.471,222.005 196.476 C 226.219 196.507,234.880 200.140,239.116 203.653 C 254.287 216.237,252.951 242.031,236.523 253.711 C 226.051 261.157,219.795 262.088,180.177 262.101 L 155.472 262.109 155.373 216.299 L 155.273 170.488 120.704 214.038 C 87.969 255.277,86.121 257.526,85.858 256.430 C 85.666 255.628,85.634 255.812,85.754 257.031 C 86.332 262.916,86.730 273.352,86.693 281.641 C 86.610 299.979,92.477 309.805,106.445 314.721 L 109.570 315.820 139.063 315.919 C 155.283 315.974,175.849 315.886,184.764 315.724 L 200.973 315.430 258.509 242.969 C 327.206 156.451,319.400 166.417,318.771 166.029 C 318.490 165.855,318.380 165.517,318.528 165.278 C 318.675 165.039,318.610 164.844,318.382 164.844 C 318.155 164.844,317.969 164.343,317.969 163.732 C 317.969 163.120,317.720 162.110,317.417 161.486 C 316.922 160.469,316.753 159.744,316.198 156.250 C 316.113 155.713,315.855 154.503,315.625 153.562 C 315.395 152.620,315.290 151.767,315.391 151.666 C 315.492 151.565,315.415 151.061,315.219 150.547 C 315.024 150.032,314.763 148.248,314.640 146.583 C 314.516 144.917,314.233 141.973,314.009 140.039 C 313.786 138.105,313.541 130.334,313.464 122.769 C 313.309 107.382,313.142 106.106,310.563 100.586 C 307.071 93.112,301.477 88.079,293.555 85.283 L 290.430 84.180 252.930 84.153 C 232.305 84.138,217.243 84.226,219.459 84.348 M175.781 172.430 L 175.781 190.625 186.621 190.612 C 202.844 190.592,207.834 189.970,213.567 187.254 C 225.968 181.377,226.444 162.652,214.336 157.017 C 209.208 154.630,208.645 154.565,191.504 154.393 L 175.781 154.235 175.781 172.430 M175.781 225.752 L 175.781 245.703 190.137 245.700 C 208.974 245.696,213.125 245.210,219.025 242.319 C 232.248 235.840,232.475 215.800,219.399 209.374 C 212.996 206.228,212.186 206.124,192.871 205.953 L 175.781 205.802 175.781 225.752 " stroke="white" stroke-width="5" fill="#7c14f8" fill-rule="evenodd" />
		<path d="M109.892 84.413 C 99.613 86.129,90.929 94.292,87.683 105.288 C 86.682 108.679,86.651 109.089,86.693 118.359 C 86.893 162.713,76.820 188.335,57.813 191.821 C 56.416 192.077,55.054 192.347,54.785 192.420 C 54.080 192.613,54.080 207.387,54.785 207.580 C 55.054 207.653,56.416 207.923,57.813 208.179 C 72.086 210.797,82.064 227.238,85.565 253.906 C 85.805 255.731,86.054 257.278,86.119 257.343 C 86.183 257.407,101.813 237.836,120.852 213.851 L 155.469 170.243 155.469 154.067 L 155.469 137.891 168.308 137.891 L 181.148 137.891 202.318 111.230 L 223.487 84.570 219.068 84.329 C 212.226 83.955,112.174 84.032,109.892 84.413 " stroke="white" stroke-width="5" fill="#8c14fc" fill-rule="evenodd" />
		<path d="M316.863 159.570 C 316.857 160.000,317.003 160.703,317.188 161.133 C 317.615 162.128,317.615 161.101,317.188 159.766 C 316.936 158.981,316.872 158.942,316.863 159.570 M259.955 241.129 L 200.973 315.430 189.451 315.638 C 183.114 315.752,203.242 315.840,234.180 315.833 L 290.430 315.820 293.555 314.717 C 307.505 309.794,313.502 299.824,313.334 281.836 C 312.923 237.916,323.209 211.660,342.188 208.179 C 343.584 207.923,344.946 207.653,345.215 207.580 C 345.584 207.479,345.703 205.625,345.703 200.000 C 345.703 194.375,345.584 192.521,345.215 192.420 C 344.946 192.347,343.584 192.077,342.188 191.821 C 335.565 190.606,328.267 185.003,324.221 178.027 C 323.256 176.362,322.322 175.000,322.147 175.000 C 321.972 175.000,321.938 174.824,322.070 174.609 C 322.203 174.395,322.115 174.219,321.875 174.219 C 321.635 174.219,321.539 174.056,321.662 173.857 C 321.929 173.425,321.103 171.484,320.653 171.484 C 320.479 171.484,320.430 171.243,320.543 170.949 C 320.656 170.654,320.518 170.171,320.237 169.875 C 319.956 169.578,319.678 168.900,319.618 168.368 C 319.558 167.835,319.380 167.271,319.223 167.114 C 319.066 166.957,292.396 200.264,259.955 241.129 " stroke="white" stroke-width="5" fill="#6c14f4" fill-rule="evenodd" />
		<path d="M203.613 205.738 C 203.989 205.836,204.604 205.836,204.980 205.738 C 205.356 205.640,205.049 205.559,204.297 205.559 C 203.545 205.559,203.237 205.640,203.613 205.738 M229.018 225.586 C 229.021 226.660,229.097 227.053,229.187 226.459 C 229.276 225.866,229.274 224.987,229.181 224.506 C 229.089 224.026,229.015 224.512,229.018 225.586 " stroke="white" stroke-width="5" fill="#bc8cfc" fill-rule="evenodd" />
		<path d="M168.652 138.183 C 176.011 138.243,188.052 138.243,195.410 138.183 C 202.769 138.124,196.748 138.075,182.031 138.075 C 167.314 138.075,161.294 138.124,168.652 138.183 M175.571 172.461 C 175.571 182.559,175.621 186.746,175.683 181.765 C 175.745 176.785,175.745 168.523,175.683 163.406 C 175.622 158.288,175.571 162.363,175.571 172.461 M223.145 171.680 C 223.150 172.539,223.230 172.845,223.323 172.359 C 223.417 171.873,223.413 171.170,223.315 170.796 C 223.217 170.423,223.141 170.820,223.145 171.680 M175.570 205.957 C 175.467 206.226,175.430 215.322,175.488 226.172 L 175.593 245.898 175.687 225.884 L 175.781 205.869 189.355 205.762 L 202.930 205.654 189.343 205.561 C 178.765 205.489,175.715 205.577,175.570 205.957 M168.262 262.012 C 175.405 262.071,187.095 262.071,194.238 262.012 C 201.382 261.952,195.537 261.903,181.250 261.903 C 166.963 261.903,161.118 261.952,168.262 262.012 " stroke="white" stroke-width="5" fill="#9e4cfc" fill-rule="evenodd" />
		<path d="M233.984 147.388 C 233.984 147.455,234.556 148.026,235.254 148.657 L 236.523 149.805 235.376 148.535 C 234.307 147.352,233.984 147.086,233.984 147.388 " stroke="white" stroke-width="5" fill="#a863fc" fill-rule="evenodd" />
		<path d="" stroke="white" stroke-width="5" fill="#b47cfc" fill-rule="evenodd" />
		<path d="M234.936 188.770 L 233.789 190.039 235.059 188.892 C 235.757 188.261,236.328 187.689,236.328 187.622 C 236.328 187.320,236.006 187.586,234.936 188.770 " stroke="white" stroke-width="5" fill="#9038fc" fill-rule="evenodd" />
	</g>
</svg>
