<svg xmlns="http://www.w3.org/2000/svg" xmlns:xlink="http://www.w3.org/1999/xlink" id="svg" version="1.1" width="400" height="559.7862391449565" viewBox="0, 0, 400,559.7862391449565">
	<g id="svgg">
		<path id="path0" d="M81.491 193.180 L 73.603 193.320 76.601 217.502 C 78.250 230.802,79.605 241.713,79.612 241.750 C 79.620 241.787,108.213 241.821,143.153 241.825 C 187.182 241.831,206.534 241.918,206.204 242.111 C 205.941 242.263,178.346 253.798,144.881 267.743 L 84.035 293.098 84.097 294.111 C 84.314 297.603,87.692 339.858,87.794 340.347 L 87.919 340.949 111.762 340.949 C 135.423 340.950,260.075 341.467,260.142 341.565 C 260.267 341.748,256.293 405.119,256.147 405.264 C 256.047 405.365,243.284 409.019,227.784 413.385 L 199.604 421.324 173.215 414.659 C 158.702 410.994,146.450 407.926,145.989 407.842 C 144.954 407.653,145.236 409.893,143.314 386.573 L 141.777 367.936 116.543 367.936 L 91.308 367.936 91.449 369.339 C 91.527 370.110,93.016 387.292,94.759 407.521 L 97.929 444.300 149.104 459.435 L 200.280 474.570 248.904 460.388 C 275.647 452.588,298.509 445.910,299.707 445.547 L 301.885 444.889 302.051 443.353 C 302.316 440.894,315.030 294.264,315.030 293.664 L 315.030 293.121 257.468 293.053 L 199.906 292.986 259.613 267.468 C 307.637 246.943,319.343 241.846,319.437 241.416 C 319.501 241.122,320.582 230.601,321.839 218.036 C 323.096 205.471,324.196 194.679,324.283 194.055 L 324.443 192.919 206.911 192.980 C 142.268 193.013,85.829 193.104,81.491 193.180 " stroke="none" stroke-width="5" fill="#efeeee" fill-rule="evenodd" />
		<path id="path1" d="M0.643 112.602 C 0.744 113.838,0.871 115.311,0.927 115.875 C 1.139 118.014,1.335 120.167,1.472 121.844 C 1.549 122.799,1.670 124.061,1.741 124.649 C 1.811 125.237,1.931 126.560,2.007 127.589 C 2.082 128.617,2.199 129.820,2.265 130.261 C 2.331 130.701,2.456 132.084,2.542 133.333 C 2.629 134.582,2.752 135.905,2.816 136.273 C 2.880 136.640,3.056 138.444,3.206 140.281 C 3.594 145.023,3.720 146.413,3.871 147.629 C 3.944 148.216,4.069 149.659,4.149 150.835 C 4.228 152.011,4.349 153.333,4.416 153.774 C 4.484 154.215,4.661 156.019,4.811 157.782 C 5.255 163.014,5.334 163.875,5.478 164.997 C 5.553 165.585,5.737 167.508,5.886 169.272 C 6.035 171.035,6.272 173.741,6.412 175.284 C 6.552 176.827,6.733 178.931,6.813 179.960 C 6.893 180.989,7.015 182.191,7.085 182.632 C 7.154 183.073,7.335 184.876,7.486 186.640 C 7.799 190.297,8.200 194.771,8.408 196.927 C 8.577 198.676,8.967 202.882,9.337 206.947 C 9.485 208.564,9.731 211.269,9.885 212.959 C 10.039 214.649,10.280 217.234,10.420 218.704 C 10.757 222.224,11.146 226.508,11.490 230.461 C 11.644 232.224,11.832 234.208,11.908 234.870 C 12.041 236.013,12.198 237.721,12.818 244.756 C 13.226 249.383,13.705 254.534,14.159 259.185 C 14.295 260.581,14.479 262.565,14.567 263.594 C 14.880 267.263,15.314 271.966,15.762 276.553 C 15.898 277.949,16.082 279.933,16.170 280.962 C 16.362 283.208,16.756 287.568,16.968 289.780 C 17.218 292.399,17.595 296.513,17.899 299.933 C 18.055 301.697,18.238 303.681,18.305 304.342 C 18.510 306.353,18.671 308.069,18.972 311.423 C 19.130 313.186,19.375 315.832,19.516 317.301 C 19.883 321.115,20.561 328.557,20.855 331.997 C 20.993 333.614,21.165 335.478,21.237 336.139 C 21.309 336.800,21.552 339.385,21.777 341.884 C 22.349 348.234,22.612 351.104,22.844 353.507 C 23.239 357.605,23.802 363.724,23.926 365.264 C 24.003 366.219,24.121 367.542,24.188 368.203 C 24.255 368.864,24.372 370.067,24.447 370.875 C 24.523 371.683,24.765 374.269,24.985 376.620 C 25.205 378.971,25.449 381.677,25.527 382.632 C 25.666 384.326,25.766 385.381,26.044 388.110 C 26.191 389.540,26.886 397.133,27.133 400.000 C 27.216 400.955,27.459 403.601,27.674 405.878 C 27.889 408.156,28.187 411.343,28.336 412.959 C 28.485 414.576,28.657 416.379,28.719 416.967 C 28.780 417.555,28.902 418.998,28.989 420.174 C 29.076 421.349,29.203 422.732,29.271 423.246 C 29.340 423.761,29.636 426.887,29.930 430.194 C 30.524 436.873,30.596 437.660,30.980 441.683 C 31.538 447.539,31.782 450.160,31.936 451.971 C 32.023 452.999,32.142 454.322,32.200 454.910 C 32.258 455.498,32.435 457.422,32.593 459.185 C 32.752 460.949,32.945 462.872,33.022 463.460 C 33.099 464.048,33.215 465.251,33.280 466.132 C 33.344 467.014,33.456 468.397,33.528 469.205 C 33.600 470.013,33.724 471.456,33.805 472.411 C 33.885 473.367,34.010 474.629,34.082 475.217 C 34.226 476.392,34.692 481.319,34.879 483.634 C 35.137 486.818,35.315 488.886,35.410 489.780 C 35.464 490.294,35.639 492.098,35.799 493.788 C 35.958 495.478,36.151 497.401,36.226 498.063 C 36.302 498.724,36.420 500.107,36.488 501.136 C 36.556 502.164,36.669 503.547,36.739 504.208 C 36.808 504.870,36.935 506.253,37.020 507.281 C 37.106 508.310,37.288 510.032,37.425 511.108 C 37.563 512.184,37.677 513.627,37.679 514.315 C 37.685 516.084,37.698 516.094,41.687 517.127 C 45.057 518.000,47.043 518.529,55.847 520.899 C 57.758 521.414,60.884 522.255,62.795 522.770 C 64.705 523.284,67.831 524.126,69.742 524.640 C 71.652 525.154,74.779 525.996,76.689 526.510 C 78.600 527.025,81.695 527.859,83.568 528.364 C 85.441 528.868,88.568 529.710,90.516 530.234 C 92.463 530.758,95.620 531.607,97.531 532.122 C 99.441 532.636,102.567 533.478,104.478 533.992 C 106.388 534.506,109.515 535.348,111.425 535.862 C 113.336 536.377,116.462 537.219,118.372 537.733 C 120.283 538.247,123.379 539.079,125.252 539.581 C 129.448 540.706,132.174 541.441,134.269 542.012 C 135.150 542.252,136.713 542.673,137.742 542.947 C 138.771 543.221,140.334 543.642,141.216 543.882 C 142.098 544.123,143.661 544.543,144.689 544.817 C 145.718 545.091,147.281 545.512,148.163 545.753 C 149.045 545.993,150.608 546.414,151.637 546.688 C 152.665 546.962,154.228 547.383,155.110 547.623 C 155.992 547.863,157.555 548.284,158.584 548.558 C 159.613 548.832,161.176 549.253,162.057 549.493 C 162.939 549.734,164.502 550.155,165.531 550.429 C 166.560 550.702,168.123 551.123,169.005 551.364 C 169.886 551.604,171.450 552.025,172.478 552.299 C 173.507 552.573,175.070 552.994,175.952 553.234 C 176.834 553.475,178.397 553.896,179.426 554.169 C 180.454 554.443,182.017 554.864,182.899 555.105 C 183.781 555.345,185.344 555.766,186.373 556.040 C 187.401 556.314,188.965 556.738,189.846 556.983 C 190.728 557.228,191.931 557.543,192.518 557.684 C 193.622 557.949,196.325 558.703,198.665 559.398 L 200.003 559.795 240.215 548.956 C 262.332 542.995,289.325 535.728,300.200 532.807 C 311.075 529.886,321.176 527.172,322.645 526.776 C 324.115 526.381,326.580 525.721,328.123 525.311 C 329.666 524.901,332.311 524.192,334.001 523.737 C 335.691 523.281,338.697 522.472,340.681 521.939 C 342.665 521.405,345.731 520.579,347.495 520.102 C 349.259 519.625,352.385 518.786,354.442 518.236 C 356.500 517.687,359.025 516.989,360.053 516.685 C 361.082 516.381,362.004 516.125,362.102 516.116 C 362.469 516.081,362.531 515.767,362.689 513.160 C 362.778 511.690,362.908 510.007,362.978 509.419 C 363.192 507.621,363.796 501.308,364.052 498.196 C 364.137 497.168,364.255 495.725,364.316 494.990 C 364.376 494.255,364.493 492.993,364.575 492.184 C 364.658 491.376,364.851 489.392,365.005 487.776 C 365.159 486.159,365.334 484.355,365.396 483.768 C 365.457 483.180,365.575 481.857,365.658 480.828 C 365.922 477.555,365.998 476.725,366.987 466.266 C 367.216 463.841,367.461 461.136,367.530 460.254 C 367.599 459.372,367.779 457.388,367.930 455.845 C 368.081 454.302,368.325 451.717,368.472 450.100 C 368.618 448.484,368.807 446.444,368.891 445.568 C 368.975 444.692,369.088 443.369,369.142 442.629 C 369.196 441.888,369.305 440.741,369.384 440.080 C 369.462 439.419,369.594 438.096,369.678 437.141 C 369.761 436.186,369.939 434.262,370.075 432.866 C 370.353 429.990,370.625 426.877,370.750 425.148 C 370.797 424.503,370.901 423.421,370.982 422.743 C 371.063 422.065,371.198 420.728,371.281 419.773 C 371.364 418.818,371.540 416.894,371.672 415.498 C 372.099 410.989,372.281 408.971,372.345 408.016 C 372.380 407.502,372.490 406.299,372.589 405.344 C 372.815 403.176,372.923 402.025,373.280 397.996 C 373.437 396.232,373.619 394.248,373.686 393.587 C 373.854 391.928,374.553 384.239,374.890 380.361 C 375.043 378.597,375.280 376.132,375.416 374.883 C 375.634 372.882,375.878 370.206,376.354 364.596 C 376.516 362.677,376.842 359.160,377.394 353.373 C 377.618 351.022,377.870 348.317,377.954 347.361 C 378.313 343.259,378.611 340.012,378.995 336.005 C 379.220 333.654,379.472 330.949,379.555 329.993 C 379.704 328.271,379.832 326.884,380.606 318.637 C 380.827 316.286,381.075 313.580,381.158 312.625 C 381.318 310.768,381.644 307.275,382.079 302.739 C 382.347 299.954,382.583 297.299,382.768 294.990 C 382.821 294.329,382.932 293.156,383.015 292.385 C 383.377 289.025,384.119 280.905,384.365 277.622 C 384.414 276.961,384.518 275.939,384.596 275.351 C 384.674 274.763,384.813 273.320,384.904 272.144 C 384.995 270.969,385.112 269.706,385.164 269.339 C 385.216 268.971,385.338 267.709,385.437 266.533 C 385.535 265.357,385.668 263.854,385.732 263.193 C 385.797 262.532,385.904 261.259,385.972 260.364 C 386.039 259.470,386.151 258.328,386.219 257.826 C 386.288 257.324,386.418 255.952,386.509 254.776 C 386.599 253.601,386.716 252.338,386.767 251.971 C 386.819 251.603,386.942 250.341,387.040 249.165 C 387.331 245.689,387.422 244.689,387.563 243.420 C 387.637 242.759,387.762 241.376,387.841 240.347 C 387.920 239.319,388.038 238.056,388.105 237.542 C 388.171 237.027,388.297 235.678,388.384 234.543 C 388.472 233.409,388.588 232.206,388.642 231.871 C 388.697 231.537,388.816 230.180,388.908 228.858 C 388.999 227.535,389.123 226.212,389.182 225.919 C 389.241 225.625,389.359 224.362,389.444 223.113 C 389.529 221.864,389.651 220.481,389.715 220.040 C 389.779 219.599,389.901 218.337,389.986 217.234 C 390.072 216.132,390.190 214.870,390.250 214.429 C 390.310 213.988,390.426 212.786,390.510 211.757 C 390.593 210.728,390.776 208.624,390.916 207.081 C 391.056 205.538,391.291 202.887,391.437 201.191 C 391.583 199.494,391.761 197.691,391.832 197.183 C 391.903 196.675,392.030 195.418,392.113 194.389 C 392.196 193.360,392.381 191.226,392.525 189.646 C 392.668 188.066,392.898 185.481,393.036 183.901 C 393.174 182.321,393.351 180.548,393.430 179.960 C 393.510 179.372,393.640 177.941,393.719 176.780 C 393.799 175.619,393.917 174.417,393.982 174.108 C 394.047 173.800,394.163 172.645,394.241 171.543 C 394.418 169.022,394.855 164.041,395.039 162.458 C 395.174 161.290,395.636 156.341,395.837 153.908 C 396.038 151.475,396.289 148.672,396.387 147.762 C 396.443 147.248,396.562 146.045,396.653 145.090 C 396.743 144.135,396.932 142.151,397.071 140.681 C 397.211 139.212,397.378 137.348,397.444 136.540 C 397.647 134.012,397.887 131.372,398.014 130.261 C 398.081 129.673,398.254 127.809,398.397 126.119 C 398.541 124.429,398.716 122.625,398.786 122.111 C 398.856 121.597,398.982 120.214,399.064 119.038 C 399.147 117.862,399.265 116.600,399.326 116.232 C 399.387 115.865,399.513 114.392,399.607 112.959 L 399.778 110.354 200.120 110.354 L 0.461 110.354 0.643 112.602 M362.057 143.547 C 362.057 145.005,331.786 489.421,331.646 489.559 C 331.545 489.659,302.124 497.632,266.266 507.277 C 230.407 516.923,200.859 524.876,200.603 524.950 C 200.162 525.078,200.133 523.713,200.068 499.891 L 200.000 474.698 191.182 472.086 C 186.333 470.650,163.316 463.843,140.034 456.958 C 103.600 446.185,97.695 444.370,97.645 443.931 C 97.510 442.736,97.013 437.245,96.862 435.271 C 96.800 434.462,96.679 433.079,96.594 432.198 C 96.509 431.316,96.389 429.933,96.327 429.125 C 96.265 428.317,96.154 426.994,96.079 426.186 C 96.005 425.377,95.882 423.995,95.806 423.113 C 95.730 422.231,95.610 420.848,95.539 420.040 C 95.468 419.232,95.341 417.789,95.257 416.834 C 95.173 415.878,95.054 414.436,94.991 413.627 C 94.929 412.819,94.809 411.436,94.724 410.554 C 94.639 409.673,94.519 408.290,94.457 407.482 C 94.395 406.673,94.283 405.351,94.209 404.542 C 93.977 402.018,93.773 399.656,93.655 398.130 C 93.593 397.321,93.473 395.939,93.388 395.057 C 93.303 394.175,93.183 392.792,93.121 391.984 C 93.059 391.176,92.947 389.853,92.873 389.045 C 92.799 388.236,92.676 386.854,92.600 385.972 C 92.524 385.090,92.403 383.707,92.332 382.899 C 91.943 378.485,91.866 377.584,91.782 376.486 C 91.732 375.825,91.600 374.322,91.490 373.146 C 91.379 371.971,91.280 370.287,91.269 369.405 L 91.249 367.802 116.545 367.734 L 141.841 367.666 141.980 368.402 C 142.057 368.807,142.817 377.655,143.669 388.064 C 144.521 398.473,145.290 407.106,145.378 407.249 C 145.523 407.482,199.004 421.101,199.800 421.106 C 200.065 421.108,200.134 412.969,200.134 381.296 L 200.134 341.483 199.532 341.462 C 199.202 341.451,173.956 341.355,143.430 341.249 C 112.904 341.143,87.860 340.989,87.777 340.905 C 87.485 340.613,83.785 293.025,84.046 292.924 C 84.187 292.870,110.334 281.973,142.151 268.709 L 200.000 244.592 200.081 243.338 L 200.163 242.084 139.761 242.084 C 104.227 242.084,79.359 241.985,79.359 241.844 C 79.359 241.712,78.036 230.927,76.420 217.878 C 74.803 204.829,73.480 193.875,73.480 193.536 L 73.480 192.919 136.807 192.919 L 200.134 192.919 200.134 168.069 L 200.134 143.220 281.096 143.220 C 344.826 143.220,362.057 143.289,362.057 143.547 " stroke="none" stroke-width="5" fill="#2364ac" fill-rule="evenodd" />
		<path id="path2" d="M200.134 168.203 L 200.134 192.919 262.258 192.919 C 296.426 192.919,324.385 193.009,324.388 193.120 C 324.395 193.375,319.503 241.941,319.466 241.979 C 319.451 241.995,292.745 253.409,260.120 267.344 C 227.495 281.278,200.687 292.779,200.548 292.900 C 200.408 293.021,226.161 293.120,257.776 293.120 L 315.259 293.120 315.121 294.522 C 315.045 295.294,312.071 329.438,308.513 370.399 C 304.955 411.359,301.989 444.920,301.924 444.979 C 301.858 445.037,278.958 451.749,251.035 459.893 L 200.267 474.702 200.199 499.742 C 200.134 523.469,200.155 524.782,200.600 524.774 C 201.141 524.765,331.550 489.662,331.678 489.492 C 331.725 489.430,338.527 411.884,346.795 317.168 C 355.062 222.452,361.887 144.626,361.963 144.222 L 362.100 143.487 281.117 143.487 L 200.134 143.487 200.134 168.203 M200.134 243.287 C 200.134 243.948,200.180 244.489,200.236 244.489 C 200.398 244.489,205.599 242.311,205.723 242.192 C 205.784 242.133,204.551 242.084,202.984 242.084 L 200.134 242.084 200.134 243.287 M117.378 341.146 C 118.228 341.199,119.551 341.199,120.317 341.145 C 121.083 341.091,120.387 341.048,118.771 341.049 C 117.154 341.049,116.527 341.093,117.378 341.146 M199.891 341.498 C 200.032 341.585,200.160 358.134,200.200 381.326 L 200.267 421.006 228.190 413.147 C 243.547 408.824,256.131 405.270,256.155 405.249 C 256.263 405.152,260.021 341.695,259.924 341.599 C 259.864 341.539,246.278 341.458,229.733 341.420 C 213.187 341.381,199.758 341.416,199.891 341.498 " stroke="none" stroke-width="5" fill="#3c9bd3" fill-rule="evenodd" />
		<path id="path3" d="M81.496 37.675 L 81.496 75.084 112.492 75.084 L 143.487 75.084 143.487 62.926 L 143.487 50.768 125.852 50.768 L 108.216 50.768 108.216 38.878 L 108.216 26.987 125.852 26.987 L 143.487 26.987 143.487 13.627 L 143.487 0.267 112.492 0.267 L 81.496 0.267 81.496 37.675 M169.404 13.560 L 169.403 26.854 181.495 38.797 L 193.587 50.739 181.496 50.754 L 169.405 50.768 169.405 62.926 L 169.405 75.084 200.401 75.084 L 231.396 75.084 231.396 62.966 L 231.396 50.849 219.305 38.985 L 207.214 27.121 219.305 27.051 L 231.396 26.982 231.396 13.625 L 231.396 0.267 200.401 0.267 L 169.405 0.267 169.404 13.560 M256.774 13.560 L 256.768 26.854 268.865 38.798 L 280.962 50.741 268.871 50.755 L 256.780 50.768 256.780 62.926 L 256.780 75.084 287.776 75.084 L 318.771 75.084 318.771 62.968 L 318.771 50.853 306.648 38.987 L 294.526 27.121 306.648 27.051 L 318.771 26.982 318.771 13.625 L 318.771 0.267 287.776 0.267 L 256.780 0.267 256.774 13.560 " stroke="none" stroke-width="5" fill="#040404" fill-rule="evenodd" />
		<path id="path4" d="M200.165 241.937 C 200.352 242.125,206.286 242.167,206.471 241.982 C 206.561 241.891,205.153 241.817,203.340 241.817 C 201.527 241.817,200.099 241.871,200.165 241.937 M207.033 341.416 C 210.901 341.458,217.153 341.458,220.927 341.416 C 224.701 341.374,221.536 341.340,213.894 341.340 C 206.253 341.340,203.165 341.374,207.033 341.416 M259.792 345.758 C 259.792 346.420,259.844 346.690,259.908 346.359 C 259.972 346.029,259.972 345.488,259.908 345.157 C 259.844 344.826,259.792 345.097,259.792 345.758 M259.525 350.033 C 259.525 350.695,259.577 350.965,259.641 350.635 C 259.704 350.304,259.704 349.763,259.641 349.432 C 259.577 349.102,259.525 349.372,259.525 350.033 M259.258 354.576 C 259.258 355.237,259.310 355.508,259.374 355.177 C 259.437 354.846,259.437 354.305,259.374 353.975 C 259.310 353.644,259.258 353.914,259.258 354.576 M258.985 358.985 C 258.988 359.572,259.043 359.781,259.107 359.449 C 259.171 359.117,259.168 358.636,259.101 358.380 C 259.035 358.125,258.982 358.397,258.985 358.985 M258.723 363.393 C 258.723 364.055,258.776 364.325,258.839 363.995 C 258.903 363.664,258.903 363.123,258.839 362.792 C 258.776 362.462,258.723 362.732,258.723 363.393 M258.451 367.802 C 258.454 368.390,258.509 368.599,258.572 368.267 C 258.636 367.934,258.634 367.453,258.567 367.198 C 258.500 366.942,258.448 367.214,258.451 367.802 M258.189 372.211 C 258.189 372.872,258.241 373.143,258.305 372.812 C 258.368 372.482,258.368 371.941,258.305 371.610 C 258.241 371.279,258.189 371.550,258.189 372.211 M257.922 376.754 C 257.922 377.415,257.974 377.685,258.038 377.355 C 258.101 377.024,258.101 376.483,258.038 376.152 C 257.974 375.822,257.922 376.092,257.922 376.754 M257.655 381.029 C 257.655 381.690,257.707 381.961,257.770 381.630 C 257.834 381.299,257.834 380.758,257.770 380.428 C 257.707 380.097,257.655 380.367,257.655 381.029 M257.387 385.571 C 257.387 386.232,257.440 386.503,257.503 386.172 C 257.567 385.842,257.567 385.301,257.503 384.970 C 257.440 384.639,257.387 384.910,257.387 385.571 M257.115 389.980 C 257.118 390.568,257.172 390.777,257.236 390.444 C 257.300 390.112,257.298 389.631,257.231 389.376 C 257.164 389.120,257.112 389.392,257.115 389.980 M256.853 394.389 C 256.853 395.050,256.905 395.321,256.969 394.990 C 257.032 394.659,257.032 394.118,256.969 393.788 C 256.905 393.457,256.853 393.727,256.853 394.389 M256.580 398.798 C 256.583 399.385,256.638 399.594,256.702 399.262 C 256.766 398.930,256.763 398.449,256.697 398.193 C 256.630 397.938,256.577 398.210,256.580 398.798 M256.319 403.206 C 256.319 403.868,256.371 404.138,256.434 403.808 C 256.498 403.477,256.498 402.936,256.434 402.605 C 256.371 402.275,256.319 402.545,256.319 403.206 " stroke="none" stroke-width="5" fill="#78bae3" fill-rule="evenodd" />
		<path id="path5" d="M77.438 193.119 C 79.688 193.164,83.295 193.164,85.454 193.119 C 87.613 193.074,85.772 193.037,81.363 193.038 C 76.954 193.038,75.188 193.074,77.438 193.119 M79.445 241.416 C 79.499 241.949,79.696 241.951,139.750 241.951 L 200.000 241.952 139.832 241.884 C 82.823 241.819,79.658 241.791,79.527 241.349 C 79.420 240.987,79.402 241.002,79.445 241.416 M131.282 341.149 C 136.694 341.189,145.471 341.189,150.788 341.149 C 156.104 341.108,151.677 341.075,140.949 341.075 C 130.220 341.075,125.871 341.108,131.282 341.149 M91.712 373.814 C 91.712 374.329,91.767 374.539,91.834 374.282 C 91.901 374.025,91.901 373.604,91.834 373.347 C 91.767 373.090,91.712 373.300,91.712 373.814 M92.246 379.960 C 92.246 380.474,92.301 380.685,92.369 380.428 C 92.436 380.170,92.436 379.749,92.369 379.492 C 92.301 379.235,92.246 379.446,92.246 379.960 M92.514 383.166 C 92.514 383.681,92.569 383.891,92.636 383.634 C 92.703 383.377,92.703 382.956,92.636 382.699 C 92.569 382.442,92.514 382.652,92.514 383.166 M93.048 389.312 C 93.048 389.826,93.103 390.037,93.170 389.780 C 93.237 389.522,93.237 389.102,93.170 388.844 C 93.103 388.587,93.048 388.798,93.048 389.312 M93.582 395.458 C 93.582 395.972,93.637 396.182,93.705 395.925 C 93.772 395.668,93.772 395.247,93.705 394.990 C 93.637 394.733,93.582 394.943,93.582 395.458 M94.384 404.810 C 94.384 405.324,94.439 405.534,94.506 405.277 C 94.573 405.020,94.573 404.599,94.506 404.342 C 94.439 404.085,94.384 404.295,94.384 404.810 M94.918 410.955 C 94.918 411.470,94.973 411.680,95.041 411.423 C 95.108 411.166,95.108 410.745,95.041 410.488 C 94.973 410.230,94.918 410.441,94.918 410.955 M95.453 417.101 C 95.453 417.615,95.508 417.826,95.575 417.568 C 95.642 417.311,95.642 416.890,95.575 416.633 C 95.508 416.376,95.453 416.587,95.453 417.101 M95.720 420.307 C 95.720 420.822,95.775 421.032,95.842 420.775 C 95.909 420.518,95.909 420.097,95.842 419.840 C 95.775 419.582,95.720 419.793,95.720 420.307 M96.254 426.453 C 96.254 426.967,96.309 427.178,96.377 426.921 C 96.444 426.663,96.444 426.242,96.377 425.985 C 96.309 425.728,96.254 425.939,96.254 426.453 M96.789 432.599 C 96.789 433.113,96.844 433.323,96.911 433.066 C 96.978 432.809,96.978 432.388,96.911 432.131 C 96.844 431.874,96.789 432.084,96.789 432.599 M97.323 438.744 C 97.323 439.259,97.378 439.469,97.445 439.212 C 97.513 438.955,97.513 438.534,97.445 438.277 C 97.378 438.019,97.323 438.230,97.323 438.744 M97.590 441.951 C 97.590 442.465,97.645 442.675,97.713 442.418 C 97.780 442.161,97.780 441.740,97.713 441.483 C 97.645 441.226,97.590 441.436,97.590 441.951 " stroke="none" stroke-width="5" fill="#96acca" fill-rule="evenodd" />
		<path id="path6" d="" stroke="none" stroke-width="5" fill="#1c5cac" fill-rule="evenodd" />
		<path id="path7" d="M103.073 341.148 C 105.461 341.193,109.369 341.193,111.757 341.148 C 114.145 341.104,112.191 341.068,107.415 341.068 C 102.639 341.068,100.685 341.104,103.073 341.148 M186.991 341.416 C 189.388 341.460,193.236 341.460,195.541 341.416 C 197.847 341.371,195.885 341.335,191.182 341.335 C 186.480 341.335,184.593 341.371,186.991 341.416 M104.028 367.869 C 111.057 367.909,122.480 367.909,129.412 367.869 C 136.345 367.829,130.595 367.797,116.633 367.797 C 102.672 367.797,97.000 367.829,104.028 367.869 " stroke="none" stroke-width="5" fill="#3c74ac" fill-rule="evenodd" />
		<path id="path8" d="M240.548 143.420 C 262.849 143.458,299.342 143.458,321.643 143.420 C 343.945 143.382,325.698 143.352,281.096 143.352 C 236.493 143.352,218.246 143.382,240.548 143.420 " stroke="none" stroke-width="5" fill="#1c88b0" fill-rule="evenodd" />
	</g>
</svg>
