<?xml version="1.0" encoding="utf-8"?>
<svg id="bootstrap" version="1.1" xmlns="http://www.w3.org/2000/svg" xmlns:xlink="http://www.w3.org/1999/xlink" width="400" height="400" viewBox="0, 0, 400,400">
	<g>
		<path id="path0" d="M84.000 27.607 L 84.000 55.214 93.700 55.107 L 103.400 55.000 103.507 45.700 L 103.615 36.400 111.007 36.400 L 118.400 36.400 118.400 45.800 L 118.400 55.200 128.200 55.200 L 138.000 55.200 138.000 27.600 L 138.000 0.000 128.200 0.000 L 118.400 0.000 118.400 8.400 L 118.400 16.800 111.000 16.800 L 103.600 16.800 103.600 8.400 L 103.600 0.000 93.800 0.000 L 84.000 0.000 84.000 27.607 M144.000 9.200 L 144.000 18.400 151.800 18.400 L 159.600 18.400 159.600 36.167 C 159.600 45.939,159.709 54.219,159.843 54.567 C 160.055 55.121,161.332 55.200,170.043 55.200 L 180.000 55.200 180.000 36.800 L 180.000 18.400 187.800 18.400 L 195.600 18.400 195.600 9.200 L 195.600 0.000 169.800 0.000 L 144.000 0.000 144.000 9.200 M202.000 27.607 L 202.000 55.214 211.700 55.107 L 221.400 55.000 221.506 43.300 C 221.564 36.865,221.712 31.600,221.835 31.600 C 222.267 31.600,223.200 32.750,223.200 33.283 C 223.200 33.580,223.560 34.083,224.000 34.400 C 224.440 34.717,224.813 35.252,224.829 35.588 C 224.845 35.925,225.203 36.740,225.625 37.400 C 226.046 38.060,226.519 38.870,226.675 39.200 C 226.832 39.530,227.284 40.149,227.680 40.575 C 228.076 41.002,228.400 41.547,228.400 41.787 C 228.400 42.027,228.760 42.483,229.200 42.800 C 229.640 43.117,230.000 43.657,230.000 44.000 C 230.000 44.343,230.360 44.883,230.800 45.200 C 231.240 45.517,231.600 46.097,231.600 46.488 C 231.600 46.986,231.909 47.200,232.629 47.200 C 233.743 47.200,234.800 46.381,234.800 45.517 C 234.800 45.220,235.160 44.717,235.600 44.400 C 236.040 44.083,236.400 43.543,236.400 43.200 C 236.400 42.857,236.760 42.317,237.200 42.000 C 237.640 41.683,238.000 41.221,238.000 40.974 C 238.000 40.726,238.360 40.198,238.800 39.800 C 239.240 39.402,239.600 38.932,239.600 38.756 C 239.600 38.580,240.050 37.772,240.600 36.962 C 241.150 36.151,241.600 35.193,241.600 34.832 C 241.600 34.472,241.960 33.917,242.400 33.600 C 242.840 33.283,243.200 32.780,243.200 32.483 C 243.200 31.950,244.133 30.800,244.566 30.800 C 244.688 30.800,244.836 36.245,244.894 42.900 L 245.000 55.000 254.700 55.107 L 264.400 55.214 264.400 27.607 L 264.400 0.000 253.795 -0.000 L 243.190 -0.000 242.148 2.200 C 241.575 3.410,240.947 4.400,240.753 4.400 C 240.559 4.400,240.400 4.760,240.400 5.200 C 240.400 5.640,240.220 6.000,240.000 6.000 C 239.780 6.000,239.600 6.320,239.600 6.712 C 239.600 7.103,239.240 7.683,238.800 8.000 C 238.360 8.317,238.000 8.807,238.000 9.088 C 238.000 9.370,237.820 9.600,237.600 9.600 C 237.380 9.600,237.200 9.920,237.200 10.312 C 237.200 10.703,236.840 11.283,236.400 11.600 C 235.960 11.917,235.600 12.457,235.600 12.800 C 235.600 13.143,235.240 13.683,234.800 14.000 C 234.360 14.317,234.000 14.820,234.000 15.117 C 234.000 15.654,233.066 16.800,232.629 16.800 C 232.503 16.800,232.400 16.440,232.400 16.000 C 232.400 15.560,232.220 15.200,232.000 15.200 C 231.780 15.200,231.600 14.880,231.600 14.488 C 231.600 14.097,231.240 13.517,230.800 13.200 C 230.360 12.883,230.000 12.303,230.000 11.912 C 230.000 11.520,229.820 11.200,229.600 11.200 C 229.380 11.200,229.200 10.964,229.200 10.675 C 229.200 10.387,228.840 9.764,228.400 9.292 C 227.960 8.820,227.600 8.246,227.600 8.017 C 227.600 7.788,227.420 7.600,227.200 7.600 C 226.980 7.600,226.800 7.280,226.800 6.888 C 226.800 6.497,226.440 5.917,226.000 5.600 C 225.560 5.283,225.200 4.799,225.200 4.525 C 225.200 3.781,223.901 1.200,223.526 1.200 C 223.347 1.200,223.200 0.930,223.200 0.600 C 223.200 0.082,221.756 0.000,212.600 0.000 L 202.000 0.000 202.000 27.607 M271.600 27.600 L 271.600 55.200 294.200 55.200 L 316.800 55.200 316.800 45.400 L 316.800 35.600 304.000 35.600 L 291.200 35.600 291.200 17.800 L 291.200 0.000 281.400 0.000 L 271.600 0.000 271.600 27.600 " stroke="none" fill="#040404" fill-rule="evenodd">
		</path>
		<path id="path1" d="M57.600 80.100 C 57.600 81.367,57.780 82.400,58.000 82.400 C 58.241 82.400,58.400 84.067,58.400 86.600 C 58.400 88.910,58.541 90.800,58.714 90.800 C 58.887 90.800,59.000 91.475,58.965 92.300 C 58.931 93.125,59.072 95.240,59.281 97.000 C 59.489 98.760,59.714 102.027,59.781 104.260 C 59.849 106.493,60.023 108.513,60.168 108.748 C 60.314 108.984,60.513 110.906,60.612 113.020 C 60.711 115.134,60.878 117.003,60.983 117.173 C 61.088 117.343,61.200 119.264,61.232 121.441 C 61.264 123.619,61.431 125.490,61.603 125.600 C 61.776 125.710,61.989 127.693,62.077 130.006 C 62.164 132.319,62.361 134.413,62.512 134.658 C 62.664 134.904,62.817 136.791,62.851 138.852 C 62.886 140.914,63.051 142.871,63.219 143.202 C 63.386 143.533,63.575 145.693,63.638 148.002 C 63.701 150.311,63.888 152.387,64.055 152.616 C 64.222 152.844,64.390 154.869,64.428 157.116 C 64.467 159.362,64.656 161.200,64.849 161.200 C 65.042 161.200,65.200 163.075,65.200 165.367 C 65.200 167.658,65.366 169.593,65.568 169.667 C 65.771 169.740,65.993 171.661,66.063 173.935 C 66.132 176.209,66.326 178.154,66.494 178.258 C 66.662 178.362,66.800 180.381,66.800 182.744 C 66.800 185.107,66.970 187.211,67.177 187.420 C 67.384 187.629,67.604 189.735,67.665 192.100 C 67.726 194.465,67.916 196.400,68.088 196.400 C 68.260 196.400,68.400 198.290,68.400 200.600 C 68.400 202.941,68.566 204.800,68.774 204.800 C 69.125 204.800,69.250 206.303,69.823 217.400 C 69.948 219.820,70.219 221.971,70.425 222.180 C 70.631 222.389,70.800 224.594,70.800 227.080 C 70.800 229.827,70.957 231.600,71.200 231.600 C 71.440 231.600,71.600 233.192,71.600 235.576 C 71.600 237.796,71.777 239.662,72.000 239.800 C 72.227 239.940,72.400 241.937,72.400 244.424 C 72.400 247.075,72.558 248.800,72.800 248.800 C 73.041 248.800,73.200 250.440,73.200 252.920 C 73.200 255.186,73.367 257.211,73.572 257.420 C 73.777 257.629,73.999 259.750,74.065 262.134 C 74.132 264.518,74.324 266.553,74.493 266.658 C 74.662 266.762,74.800 268.626,74.800 270.800 C 74.800 272.974,74.947 274.843,75.126 274.954 C 75.305 275.065,75.486 277.074,75.527 279.418 C 75.568 281.762,75.707 283.850,75.835 284.057 C 75.963 284.264,76.131 286.001,76.209 287.917 C 76.286 289.833,76.518 292.300,76.724 293.400 C 76.930 294.500,77.067 296.480,77.029 297.800 C 76.991 299.120,77.103 300.398,77.278 300.639 C 77.453 300.880,77.662 303.062,77.743 305.487 C 77.823 307.912,77.994 310.067,78.123 310.275 C 78.252 310.484,78.389 312.442,78.428 314.627 C 78.467 316.812,78.635 318.690,78.801 318.800 C 78.967 318.910,79.169 320.890,79.251 323.200 C 79.333 325.510,79.521 327.492,79.668 327.604 C 79.816 327.716,79.983 329.696,80.041 332.004 C 80.098 334.312,80.275 336.290,80.434 336.400 C 80.593 336.510,80.785 338.535,80.861 340.900 C 80.938 343.264,81.135 345.199,81.300 345.200 C 81.465 345.200,81.600 346.808,81.600 348.774 C 81.600 350.740,81.773 352.803,81.984 353.359 C 82.196 353.915,82.404 356.184,82.448 358.401 C 82.492 360.618,82.679 362.525,82.864 362.639 C 83.049 362.754,83.201 364.052,83.203 365.524 C 83.206 368.408,83.869 369.200,86.280 369.200 C 86.786 369.200,87.200 369.380,87.200 369.600 C 87.200 369.820,87.729 370.000,88.376 370.000 C 89.023 370.000,89.640 370.141,89.746 370.313 C 89.852 370.485,90.538 370.670,91.270 370.725 C 92.001 370.780,92.660 371.000,92.733 371.213 C 92.807 371.426,93.392 371.600,94.033 371.600 C 94.675 371.600,95.200 371.791,95.200 372.024 C 95.200 372.257,95.349 372.355,95.532 372.242 C 95.715 372.129,96.795 372.282,97.932 372.582 C 99.069 372.882,100.000 373.032,100.000 372.915 C 100.000 372.798,100.250 372.910,100.556 373.164 C 100.862 373.418,101.672 373.665,102.355 373.713 C 103.039 373.761,103.599 373.935,103.599 374.100 C 103.600 374.265,104.320 374.400,105.200 374.400 C 106.080 374.400,106.800 374.580,106.800 374.800 C 106.800 375.020,107.340 375.200,108.000 375.200 C 108.660 375.200,109.200 375.380,109.200 375.600 C 109.200 375.820,109.909 376.000,110.776 376.000 C 111.643 376.000,112.464 376.180,112.600 376.400 C 112.736 376.620,113.197 376.800,113.624 376.800 C 114.051 376.800,114.400 376.980,114.400 377.200 C 114.400 377.420,115.120 377.600,116.000 377.600 C 116.880 377.600,117.600 377.742,117.600 377.915 C 117.600 378.088,118.185 378.269,118.900 378.317 C 119.615 378.364,120.560 378.558,121.000 378.746 C 122.566 379.418,124.670 380.000,125.528 380.000 C 126.008 380.000,126.400 380.180,126.400 380.400 C 126.400 380.620,126.929 380.800,127.576 380.800 C 128.223 380.800,128.864 380.980,129.000 381.200 C 129.136 381.420,129.877 381.600,130.647 381.600 C 131.479 381.600,131.947 381.762,131.800 382.000 C 131.653 382.238,132.121 382.400,132.953 382.400 C 133.723 382.400,134.464 382.580,134.600 382.800 C 134.736 383.020,135.366 383.200,136.000 383.200 C 136.634 383.200,137.264 383.380,137.400 383.600 C 137.536 383.820,138.256 384.000,139.000 384.000 C 139.744 384.000,140.464 384.180,140.600 384.400 C 140.736 384.620,141.276 384.800,141.800 384.800 C 142.324 384.800,142.864 384.980,143.000 385.200 C 143.136 385.420,143.867 385.600,144.624 385.600 C 145.381 385.600,146.000 385.780,146.000 386.000 C 146.000 386.220,146.542 386.400,147.205 386.400 C 147.868 386.400,148.723 386.558,149.105 386.751 C 150.351 387.380,152.634 388.000,153.705 388.000 C 154.281 388.000,154.854 388.164,154.978 388.365 C 155.103 388.566,155.968 388.855,156.902 389.006 C 157.836 389.158,159.617 389.620,160.859 390.032 C 162.102 390.444,163.677 390.824,164.359 390.876 C 165.042 390.928,165.600 391.112,165.600 391.285 C 165.600 391.458,166.230 391.600,167.000 391.600 C 167.770 391.600,168.400 391.780,168.400 392.000 C 168.400 392.220,169.030 392.400,169.800 392.400 C 170.570 392.400,171.200 392.580,171.200 392.800 C 171.200 393.020,171.830 393.200,172.600 393.200 C 173.370 393.200,174.000 393.380,174.000 393.600 C 174.000 393.820,174.720 394.000,175.600 394.000 C 176.480 394.000,177.200 394.180,177.200 394.400 C 177.200 394.620,177.650 394.800,178.200 394.800 C 178.750 394.800,179.200 394.943,179.200 395.118 C 179.200 395.293,179.875 395.482,180.699 395.537 C 181.524 395.593,182.370 395.810,182.579 396.019 C 182.789 396.229,183.554 396.400,184.280 396.400 C 185.006 396.400,185.600 396.580,185.600 396.800 C 185.600 397.020,186.140 397.200,186.800 397.200 C 187.460 397.200,188.000 397.380,188.000 397.600 C 188.000 397.820,188.619 398.000,189.376 398.000 C 190.133 398.000,190.864 398.180,191.000 398.400 C 191.136 398.620,191.762 398.800,192.390 398.800 C 193.019 398.800,193.607 399.020,193.696 399.288 C 193.932 399.995,205.264 400.006,205.500 399.300 C 205.595 399.014,206.336 398.800,207.233 398.800 C 208.095 398.800,208.800 398.620,208.800 398.400 C 208.800 398.180,209.329 398.000,209.976 398.000 C 210.623 398.000,211.264 397.820,211.400 397.600 C 211.536 397.380,212.267 397.200,213.024 397.200 C 213.781 397.200,214.400 397.020,214.400 396.800 C 214.400 396.580,215.131 396.400,216.024 396.400 C 217.004 396.400,217.549 396.242,217.400 396.000 C 217.253 395.762,217.729 395.600,218.576 395.600 C 219.359 395.600,220.000 395.440,220.000 395.244 C 220.000 395.048,220.630 394.778,221.400 394.644 C 222.170 394.510,223.429 394.290,224.197 394.157 C 224.965 394.023,225.494 393.753,225.373 393.557 C 225.252 393.360,225.883 393.200,226.776 393.200 C 227.669 393.200,228.400 393.020,228.400 392.800 C 228.400 392.580,229.019 392.400,229.776 392.400 C 230.533 392.400,231.264 392.220,231.400 392.000 C 231.536 391.780,232.166 391.600,232.800 391.600 C 233.434 391.600,234.047 391.448,234.162 391.261 C 234.277 391.075,234.915 390.907,235.580 390.888 C 236.245 390.869,237.017 390.711,237.295 390.537 C 237.573 390.363,238.247 390.159,238.793 390.084 C 239.338 390.009,239.878 389.825,239.993 389.674 C 240.107 389.523,240.650 389.346,241.200 389.279 C 244.147 388.923,245.200 388.681,245.200 388.358 C 245.200 388.161,245.704 388.000,246.320 388.000 C 246.936 388.000,247.631 387.809,247.865 387.575 C 248.099 387.341,248.861 387.133,249.559 387.114 C 250.257 387.094,250.923 386.925,251.038 386.739 C 251.153 386.552,251.642 386.397,252.124 386.394 C 253.081 386.387,255.820 385.513,256.259 385.074 C 256.410 384.923,257.123 384.800,257.843 384.800 C 258.563 384.800,259.264 384.620,259.400 384.400 C 259.536 384.180,260.177 384.000,260.824 384.000 C 261.471 384.000,262.000 383.820,262.000 383.600 C 262.000 383.380,262.731 383.200,263.624 383.200 C 264.604 383.200,265.149 383.042,265.000 382.800 C 264.850 382.558,265.404 382.400,266.400 382.400 C 267.396 382.400,267.950 382.242,267.800 382.000 C 267.653 381.762,268.121 381.600,268.953 381.600 C 269.723 381.600,270.464 381.420,270.600 381.200 C 270.736 380.980,271.467 380.800,272.224 380.800 C 272.981 380.800,273.600 380.620,273.600 380.400 C 273.600 380.180,274.140 380.000,274.800 380.000 C 275.460 380.000,276.000 379.820,276.000 379.600 C 276.000 379.380,276.720 379.200,277.600 379.200 C 278.480 379.200,279.200 379.020,279.200 378.800 C 279.200 378.580,279.931 378.400,280.824 378.400 C 281.804 378.400,282.349 378.242,282.200 378.000 C 282.056 377.767,282.455 377.600,283.153 377.600 C 283.813 377.600,284.464 377.420,284.600 377.200 C 284.736 376.980,285.567 376.800,286.447 376.800 C 287.412 376.800,287.949 376.641,287.800 376.400 C 287.656 376.167,288.063 376.000,288.776 376.000 C 289.449 376.000,290.000 375.820,290.000 375.600 C 290.000 375.380,290.709 375.200,291.576 375.200 C 292.443 375.200,293.264 375.020,293.400 374.800 C 293.536 374.580,294.177 374.400,294.824 374.400 C 295.471 374.400,296.000 374.221,296.000 374.003 C 296.000 373.784,296.405 373.672,296.900 373.753 C 297.395 373.835,298.340 373.683,299.000 373.415 C 299.660 373.148,300.409 372.999,300.663 373.086 C 300.918 373.172,301.244 373.053,301.387 372.821 C 301.530 372.590,302.098 372.400,302.650 372.400 C 303.201 372.400,303.991 372.219,304.405 371.997 C 304.819 371.776,305.617 371.557,306.179 371.510 C 306.740 371.464,307.200 371.285,307.200 371.113 C 307.200 370.941,307.605 370.797,308.100 370.794 C 308.595 370.791,309.810 370.502,310.800 370.152 C 311.790 369.802,313.140 369.438,313.800 369.342 C 316.529 368.947,316.800 368.568,316.800 365.156 C 316.800 363.446,316.946 361.957,317.125 361.846 C 317.304 361.736,317.497 359.883,317.555 357.728 C 317.612 355.574,317.801 353.628,317.975 353.405 C 318.149 353.182,318.321 351.268,318.359 349.151 C 318.396 347.034,318.601 344.695,318.813 343.953 C 319.026 343.212,319.200 341.197,319.200 339.476 C 319.200 337.755,319.359 336.044,319.553 335.674 C 319.748 335.303,320.024 332.930,320.167 330.400 C 320.311 327.870,320.600 324.090,320.810 322.000 C 321.020 319.910,321.298 316.311,321.429 314.003 C 321.559 311.695,321.786 309.715,321.933 309.603 C 322.080 309.491,322.247 307.520,322.304 305.221 C 322.361 302.923,322.579 300.937,322.788 300.807 C 322.997 300.678,323.103 299.408,323.022 297.986 C 322.941 296.564,323.033 294.500,323.225 293.400 C 323.418 292.300,323.658 289.738,323.760 287.706 C 323.862 285.675,324.044 283.852,324.166 283.655 C 324.288 283.458,324.407 281.295,324.430 278.848 C 324.453 276.402,324.636 274.400,324.836 274.400 C 325.036 274.400,325.200 272.521,325.200 270.224 C 325.200 267.927,325.347 265.956,325.527 265.845 C 325.707 265.734,325.899 263.788,325.954 261.521 C 326.009 259.255,326.221 257.340,326.427 257.267 C 326.632 257.193,326.800 255.258,326.800 252.967 C 326.800 250.456,326.959 248.800,327.200 248.800 C 327.442 248.800,327.600 247.067,327.600 244.400 C 327.600 241.733,327.758 240.000,328.000 240.000 C 328.242 240.000,328.400 238.275,328.400 235.624 C 328.400 233.137,328.573 231.140,328.800 231.000 C 329.027 230.860,329.200 228.863,329.200 226.376 C 329.200 223.920,329.365 222.000,329.575 222.000 C 329.781 222.000,330.050 220.065,330.172 217.700 C 330.294 215.335,330.497 211.465,330.623 209.100 C 330.749 206.735,330.998 204.800,331.176 204.800 C 331.355 204.800,331.533 202.971,331.571 200.735 C 331.610 198.499,331.798 196.377,331.990 196.018 C 332.182 195.660,332.324 195.104,332.306 194.783 C 332.170 192.340,332.464 187.192,332.729 187.356 C 332.910 187.468,333.101 185.548,333.152 183.089 C 333.204 180.630,333.386 178.524,333.556 178.409 C 333.727 178.294,333.909 176.310,333.960 174.000 C 334.011 171.690,334.221 169.740,334.427 169.667 C 334.632 169.593,334.800 167.658,334.800 165.367 C 334.800 163.075,334.958 161.200,335.151 161.200 C 335.344 161.200,335.533 159.362,335.572 157.116 C 335.610 154.869,335.778 152.844,335.945 152.616 C 336.112 152.387,336.299 150.311,336.362 148.002 C 336.425 145.693,336.614 143.533,336.782 143.202 C 336.950 142.871,337.115 140.880,337.149 138.777 C 337.184 136.674,337.362 134.424,337.545 133.777 C 337.729 133.130,337.918 131.184,337.967 129.454 C 338.015 127.723,338.199 125.923,338.375 125.454 C 338.551 124.984,338.729 122.992,338.770 121.026 C 338.811 119.060,338.932 117.311,339.038 117.138 C 339.145 116.966,339.306 115.189,339.396 113.189 C 339.487 111.190,339.686 109.160,339.839 108.678 C 339.991 108.197,340.166 106.092,340.227 104.002 C 340.288 101.911,340.505 98.760,340.709 97.000 C 340.913 95.240,341.048 93.125,341.008 92.300 C 340.968 91.475,341.085 90.800,341.268 90.800 C 341.451 90.800,341.600 88.910,341.600 86.600 C 341.600 84.067,341.759 82.400,342.000 82.400 C 342.220 82.400,342.400 81.367,342.400 80.100 L 342.400 77.800 200.000 77.800 L 57.600 77.800 57.600 80.100 M315.453 106.500 C 315.315 108.755,315.025 112.490,314.810 114.800 C 314.166 121.693,313.640 127.523,313.222 132.400 C 312.739 138.036,312.151 144.760,311.630 150.600 C 311.415 153.020,310.962 158.150,310.625 162.000 C 309.860 170.732,309.298 176.983,308.789 182.400 C 308.572 184.710,308.036 190.740,307.598 195.800 C 307.160 200.860,306.074 213.010,305.184 222.800 C 304.295 232.590,303.381 242.850,303.154 245.600 C 302.712 250.962,302.258 256.087,301.630 262.800 C 300.966 269.891,300.376 276.402,300.000 280.800 C 299.624 285.198,299.034 291.709,298.370 298.800 C 297.744 305.494,297.288 310.630,296.845 316.000 C 296.456 320.723,296.112 324.609,295.216 334.400 C 295.005 336.710,294.624 340.940,294.369 343.800 C 293.868 349.419,293.728 349.808,292.087 350.119 C 291.087 350.308,286.416 351.535,283.300 352.428 C 281.346 352.987,279.638 353.465,277.200 354.135 C 270.888 355.868,252.813 360.853,251.600 361.195 C 250.830 361.412,248.310 362.123,246.000 362.775 C 243.690 363.428,240.720 364.256,239.400 364.615 C 238.080 364.975,236.460 365.424,235.800 365.612 C 233.004 366.411,231.627 366.791,228.600 367.600 C 226.840 368.070,224.860 368.607,224.200 368.793 C 223.540 368.979,221.920 369.425,220.600 369.786 C 219.280 370.146,215.680 371.153,212.600 372.023 C 202.573 374.856,201.278 375.200,200.635 375.200 C 200.065 375.200,200.000 373.369,200.000 357.200 C 200.000 339.649,199.981 339.200,199.224 339.200 C 198.797 339.200,198.348 339.040,198.227 338.844 C 198.106 338.649,197.421 338.401,196.704 338.293 C 195.987 338.186,194.320 337.797,193.000 337.428 C 191.680 337.060,189.250 336.392,187.600 335.943 C 184.635 335.138,183.726 334.884,180.600 333.985 C 179.720 333.732,178.413 333.432,177.696 333.319 C 176.979 333.205,176.294 332.951,176.173 332.756 C 176.052 332.560,175.571 332.400,175.105 332.400 C 174.204 332.400,171.861 331.735,170.705 331.151 C 170.323 330.958,169.569 330.800,169.029 330.800 C 168.489 330.800,167.936 330.620,167.800 330.400 C 167.664 330.180,167.034 330.000,166.400 330.000 C 165.766 330.000,165.148 329.840,165.027 329.644 C 164.906 329.449,164.176 329.179,163.404 329.044 C 162.632 328.910,161.368 328.690,160.596 328.556 C 159.824 328.421,159.094 328.151,158.973 327.956 C 158.852 327.760,158.234 327.600,157.600 327.600 C 156.966 327.600,156.336 327.420,156.200 327.200 C 156.064 326.980,155.434 326.800,154.800 326.800 C 154.166 326.800,153.536 326.620,153.400 326.400 C 153.264 326.180,152.634 326.000,152.000 326.000 C 151.366 326.000,150.736 325.820,150.600 325.600 C 150.464 325.380,149.834 325.200,149.200 325.200 C 148.566 325.200,147.936 325.020,147.800 324.800 C 147.664 324.580,147.171 324.400,146.705 324.400 C 145.804 324.400,143.461 323.735,142.305 323.151 C 141.923 322.958,141.156 322.800,140.600 322.800 C 140.044 322.800,139.277 322.628,138.895 322.418 C 138.513 322.208,135.978 321.477,133.262 320.792 C 125.967 318.954,126.400 319.297,126.400 315.359 C 126.400 313.538,126.220 311.936,126.000 311.800 C 125.775 311.661,125.600 309.737,125.600 307.400 C 125.600 305.063,125.425 303.139,125.200 303.000 C 124.975 302.861,124.800 300.937,124.800 298.600 C 124.800 296.263,124.625 294.339,124.400 294.200 C 124.175 294.061,124.000 292.137,124.000 289.800 C 124.000 287.463,123.825 285.539,123.600 285.400 C 123.375 285.261,123.200 283.337,123.200 281.000 C 123.200 278.663,123.025 276.739,122.800 276.600 C 122.575 276.461,122.400 274.537,122.400 272.200 C 122.400 269.863,122.225 267.939,122.000 267.800 C 121.780 267.664,121.600 266.393,121.600 264.976 L 121.600 262.400 139.992 262.400 L 158.385 262.400 158.585 263.300 C 158.777 264.159,158.943 266.652,159.431 276.000 C 159.552 278.310,159.819 280.371,160.025 280.580 C 160.231 280.789,160.413 282.679,160.429 284.780 C 160.464 289.293,161.129 290.918,163.030 291.131 C 163.673 291.203,164.371 291.428,164.580 291.631 C 164.789 291.834,165.543 292.000,166.256 292.000 C 166.969 292.000,167.664 292.180,167.800 292.400 C 167.936 292.620,168.566 292.800,169.200 292.800 C 169.834 292.800,170.464 292.980,170.600 293.200 C 170.736 293.420,171.366 293.600,172.000 293.600 C 172.634 293.600,173.252 293.760,173.373 293.956 C 173.494 294.151,174.179 294.398,174.896 294.504 C 176.236 294.702,189.115 298.034,194.800 299.654 C 196.319 300.087,199.217 300.755,199.700 300.783 C 199.865 300.792,200.000 288.381,200.000 273.202 L 200.000 245.604 160.100 245.502 L 120.200 245.400 119.910 243.400 C 119.751 242.300,119.422 239.150,119.180 236.400 C 118.938 233.650,118.583 229.690,118.392 227.600 C 118.200 225.510,117.858 221.730,117.631 219.200 C 117.403 216.670,117.034 212.575,116.809 210.100 C 116.584 207.625,116.229 203.665,116.021 201.300 C 115.812 198.935,115.539 195.920,115.414 194.600 C 114.779 187.887,114.293 182.349,113.397 171.600 C 112.855 165.110,112.228 157.820,112.002 155.400 C 111.341 148.302,111.229 146.851,110.958 141.900 L 110.701 137.200 155.351 137.200 L 200.000 137.200 200.000 119.800 L 200.000 102.400 257.852 102.400 L 315.705 102.400 315.453 106.500 M150.576 174.900 C 150.727 175.615,151.011 178.180,151.206 180.600 C 151.838 188.435,152.355 194.461,152.984 201.307 C 153.323 204.995,153.600 208.280,153.600 208.607 C 153.600 209.124,156.559 209.200,176.800 209.200 L 200.000 209.200 200.000 191.400 L 200.000 173.600 175.150 173.600 L 150.300 173.600 150.576 174.900 " stroke="none" fill="#e44c24" fill-rule="evenodd">
		</path>
		<path id="path2" d="M111.371 139.100 C 111.500 139.705,111.789 142.360,112.014 145.000 C 113.174 158.651,113.830 166.099,114.374 171.800 C 114.605 174.220,114.966 178.270,115.177 180.800 C 115.839 188.757,117.587 208.811,118.018 213.400 C 118.246 215.820,118.614 219.960,118.835 222.600 C 119.057 225.240,119.409 229.290,119.616 231.600 C 119.823 233.910,120.107 237.510,120.247 239.600 C 120.387 241.690,120.665 243.715,120.865 244.100 C 121.208 244.762,124.527 244.800,181.914 244.806 C 215.291 244.809,242.822 244.953,243.094 245.126 C 243.646 245.477,243.642 245.543,241.600 268.000 C 241.380 270.420,241.016 274.425,240.791 276.900 C 240.566 279.375,240.232 283.436,240.047 285.924 C 239.658 291.178,239.672 291.158,235.887 292.119 C 234.299 292.522,232.460 293.004,231.800 293.190 C 231.140 293.376,228.530 294.082,226.000 294.758 C 219.227 296.568,214.601 297.812,211.000 298.793 C 209.240 299.273,206.450 300.033,204.800 300.482 C 200.144 301.749,198.968 301.771,194.995 300.664 C 193.018 300.113,189.240 299.096,186.600 298.404 C 182.205 297.252,179.400 296.494,176.200 295.593 C 171.741 294.338,168.417 293.487,167.296 293.314 C 166.579 293.202,165.894 292.951,165.773 292.756 C 165.652 292.560,165.059 292.400,164.456 292.400 C 163.853 292.400,163.189 292.234,162.980 292.031 C 162.771 291.828,162.060 291.603,161.400 291.531 C 160.052 291.384,160.266 292.385,159.234 281.400 C 158.350 271.974,157.989 268.164,157.748 265.700 L 157.504 263.200 140.107 263.200 L 122.709 263.200 122.947 267.300 C 123.077 269.555,123.359 273.290,123.573 275.600 C 124.909 290.021,126.168 304.066,126.764 311.200 C 127.385 318.629,127.143 318.165,130.941 319.204 C 134.015 320.045,135.669 320.515,138.000 321.209 C 138.550 321.373,139.810 321.727,140.800 321.995 C 141.790 322.264,143.013 322.645,143.519 322.842 C 144.024 323.039,144.869 323.200,145.395 323.200 C 145.922 323.200,146.464 323.380,146.600 323.600 C 146.736 323.820,147.366 324.000,148.000 324.000 C 148.634 324.000,149.264 324.180,149.400 324.400 C 149.536 324.620,150.166 324.800,150.800 324.800 C 151.434 324.800,152.052 324.960,152.173 325.156 C 152.294 325.351,152.979 325.605,153.696 325.719 C 154.413 325.832,155.720 326.139,156.600 326.400 C 157.480 326.661,158.787 326.968,159.504 327.081 C 160.221 327.195,160.906 327.449,161.027 327.644 C 161.148 327.840,161.766 328.000,162.400 328.000 C 163.034 328.000,163.643 328.146,163.753 328.324 C 163.863 328.502,165.144 328.896,166.600 329.200 C 168.056 329.504,169.337 329.898,169.447 330.076 C 169.557 330.254,170.029 330.400,170.495 330.400 C 170.962 330.400,171.896 330.583,172.572 330.807 C 173.247 331.030,176.680 332.008,180.200 332.979 C 183.720 333.950,188.310 335.217,190.400 335.795 C 192.490 336.372,195.550 337.191,197.200 337.615 L 200.200 338.385 207.600 336.363 C 215.733 334.140,217.769 333.582,224.100 331.835 C 225.365 331.486,227.435 330.914,228.700 330.565 C 232.011 329.652,233.237 329.306,237.700 328.028 C 238.415 327.823,240.440 327.270,242.200 326.800 C 243.960 326.330,245.940 325.787,246.600 325.595 C 247.260 325.403,248.430 325.071,249.200 324.858 C 249.970 324.646,251.950 324.096,253.600 323.637 C 255.250 323.177,260.105 321.844,264.389 320.674 L 272.178 318.546 272.478 317.173 C 272.643 316.418,272.976 313.460,273.218 310.600 C 273.460 307.740,273.821 303.600,274.020 301.400 C 274.220 299.200,274.557 295.420,274.771 293.000 C 274.985 290.580,275.358 286.440,275.600 283.800 C 275.842 281.160,276.207 277.110,276.410 274.800 C 276.613 272.490,276.956 268.620,277.172 266.200 C 277.389 263.780,277.762 259.550,278.001 256.800 C 278.240 254.050,278.603 249.910,278.809 247.600 C 279.015 245.290,279.375 241.240,279.610 238.600 C 279.844 235.960,280.208 231.910,280.418 229.600 C 280.628 227.290,280.988 223.330,281.217 220.800 C 281.446 218.270,281.739 214.715,281.867 212.900 L 282.100 209.600 217.674 209.600 C 171.947 209.600,153.170 209.475,152.980 209.168 C 152.717 208.742,152.081 202.613,151.200 192.000 C 150.953 189.030,150.510 183.720,150.215 180.200 C 149.842 175.730,149.806 173.646,150.099 173.289 C 150.437 172.875,163.397 172.830,217.846 173.054 C 275.690 173.292,285.203 173.252,285.374 172.766 C 285.615 172.079,288.400 141.376,288.400 139.400 L 288.400 138.000 199.768 138.000 L 111.136 138.000 111.371 139.100 " stroke="none" fill="#f3f2f2" fill-rule="evenodd">
		</path>
		<path id="path3" d="M58.901 96.200 C 58.905 97.080,58.987 97.393,59.083 96.895 C 59.179 96.398,59.175 95.678,59.075 95.295 C 58.975 94.913,58.896 95.320,58.901 96.200 M340.901 96.200 C 340.905 97.080,340.987 97.393,341.083 96.895 C 341.179 96.398,341.175 95.678,341.075 95.295 C 340.975 94.913,340.896 95.320,340.901 96.200 M200.000 119.800 L 200.000 137.200 244.600 137.200 L 289.200 137.200 289.200 139.920 C 289.200 141.416,289.037 142.811,288.838 143.020 C 288.638 143.229,288.374 145.470,288.251 148.000 C 288.128 150.530,287.859 154.580,287.652 157.000 C 286.786 167.157,286.371 171.463,286.160 172.500 L 285.936 173.600 242.968 173.600 L 200.000 173.600 200.000 191.398 L 200.000 209.196 241.500 209.298 L 283.000 209.400 282.916 210.400 C 282.870 210.950,282.635 213.560,282.393 216.200 C 282.151 218.840,281.785 222.890,281.580 225.200 C 281.113 230.450,280.526 236.940,280.024 242.400 C 279.460 248.538,278.815 255.613,278.384 260.400 C 278.176 262.710,277.816 266.670,277.584 269.200 C 277.351 271.730,277.072 275.600,276.964 277.800 C 276.855 280.000,276.599 282.160,276.393 282.600 C 276.188 283.040,275.927 285.200,275.813 287.400 C 275.700 289.600,275.511 293.200,275.393 295.400 C 275.275 297.600,275.008 299.760,274.799 300.200 C 274.591 300.640,274.324 302.890,274.207 305.200 C 273.616 316.848,273.560 317.393,272.856 318.326 C 272.185 319.215,268.185 320.607,264.896 321.095 C 264.179 321.201,263.494 321.449,263.373 321.644 C 263.252 321.840,262.634 322.000,262.000 322.000 C 261.366 322.000,260.748 322.160,260.627 322.356 C 260.506 322.551,259.731 322.827,258.904 322.967 C 255.276 323.585,254.781 323.708,254.573 324.044 C 254.452 324.240,253.834 324.400,253.200 324.400 C 252.566 324.400,251.936 324.580,251.800 324.800 C 251.664 325.020,251.034 325.200,250.400 325.200 C 249.766 325.200,249.136 325.380,249.000 325.600 C 248.864 325.820,248.234 326.000,247.600 326.000 C 246.966 326.000,246.336 326.180,246.200 326.400 C 246.064 326.620,245.434 326.800,244.800 326.800 C 244.166 326.800,243.536 326.980,243.400 327.200 C 243.264 327.420,242.634 327.600,242.000 327.600 C 241.366 327.600,240.748 327.760,240.627 327.956 C 240.506 328.151,239.821 328.405,239.104 328.519 C 238.387 328.632,237.125 328.922,236.300 329.163 C 235.475 329.403,234.125 329.797,233.300 330.037 C 232.475 330.278,231.213 330.568,230.496 330.681 C 229.779 330.795,229.094 331.049,228.973 331.244 C 228.852 331.440,228.234 331.600,227.600 331.600 C 226.966 331.600,226.348 331.760,226.227 331.956 C 226.106 332.151,225.421 332.405,224.704 332.519 C 223.987 332.632,222.725 332.922,221.900 333.163 C 220.143 333.675,218.937 334.014,214.600 335.214 C 206.234 337.529,204.126 338.096,203.200 338.281 C 202.650 338.391,201.705 338.686,201.100 338.938 L 200.000 339.395 200.000 357.298 C 200.000 373.377,200.065 375.200,200.635 375.200 C 201.278 375.200,202.573 374.856,212.600 372.023 C 215.680 371.153,219.280 370.146,220.600 369.786 C 221.920 369.425,223.540 368.979,224.200 368.793 C 224.860 368.607,226.840 368.070,228.600 367.600 C 231.627 366.791,233.004 366.411,235.800 365.612 C 236.460 365.424,238.080 364.975,239.400 364.615 C 240.720 364.256,243.690 363.428,246.000 362.775 C 248.310 362.123,250.830 361.412,251.600 361.195 C 252.813 360.853,270.888 355.868,277.200 354.135 C 279.638 353.465,281.346 352.987,283.300 352.428 C 286.416 351.535,291.087 350.308,292.087 350.119 C 293.728 349.808,293.868 349.419,294.369 343.800 C 294.624 340.940,295.005 336.710,295.216 334.400 C 296.112 324.609,296.456 320.723,296.845 316.000 C 297.288 310.630,297.744 305.494,298.370 298.800 C 299.034 291.709,299.624 285.198,300.000 280.800 C 300.376 276.402,300.966 269.891,301.630 262.800 C 302.258 256.087,302.712 250.962,303.154 245.600 C 303.381 242.850,304.295 232.590,305.184 222.800 C 306.074 213.010,307.160 200.860,307.598 195.800 C 308.036 190.740,308.572 184.710,308.789 182.400 C 309.298 176.983,309.860 170.732,310.625 162.000 C 310.962 158.150,311.415 153.020,311.630 150.600 C 312.151 144.760,312.739 138.036,313.222 132.400 C 313.640 127.523,314.166 121.693,314.810 114.800 C 315.025 112.490,315.315 108.755,315.453 106.500 L 315.705 102.400 257.852 102.400 L 200.000 102.400 200.000 119.800 M112.893 166.000 C 112.893 166.770,112.975 167.085,113.076 166.700 C 113.176 166.315,113.176 165.685,113.076 165.300 C 112.975 164.915,112.893 165.230,112.893 166.000 M200.000 273.167 C 200.000 294.827,199.893 300.784,199.500 300.971 C 198.953 301.231,200.310 300.945,202.200 300.401 C 202.860 300.211,204.750 299.699,206.400 299.264 C 208.050 298.829,211.920 297.800,215.000 296.979 C 218.080 296.157,221.187 295.401,221.904 295.298 C 222.621 295.196,223.306 294.951,223.427 294.756 C 223.548 294.560,224.166 294.400,224.800 294.400 C 225.434 294.400,226.052 294.240,226.173 294.044 C 226.381 293.708,226.876 293.585,230.504 292.967 C 231.331 292.827,232.106 292.551,232.227 292.356 C 232.348 292.160,233.067 292.000,233.824 292.000 C 234.581 292.000,235.200 291.820,235.200 291.600 C 235.200 291.380,235.808 291.200,236.551 291.200 C 238.735 291.200,239.036 290.348,239.656 282.400 C 239.853 279.870,240.196 275.820,240.419 273.400 C 240.641 270.980,240.919 267.200,241.037 265.000 C 241.155 262.800,241.420 260.829,241.626 260.620 C 241.832 260.411,242.000 258.397,242.000 256.144 C 242.000 253.844,242.175 251.939,242.400 251.800 C 242.620 251.664,242.800 250.213,242.800 248.576 L 242.800 245.600 221.400 245.600 L 200.000 245.600 200.000 273.167 M324.493 278.000 C 324.493 278.770,324.575 279.085,324.676 278.700 C 324.776 278.315,324.776 277.685,324.676 277.300 C 324.575 276.915,324.493 277.230,324.493 278.000 M160.681 289.587 C 160.794 290.020,161.132 290.578,161.433 290.827 C 161.845 291.170,161.828 290.978,161.360 290.040 C 160.653 288.622,160.381 288.441,160.681 289.587 M323.693 290.800 C 323.693 291.570,323.775 291.885,323.876 291.500 C 323.976 291.115,323.976 290.485,323.876 290.100 C 323.775 289.715,323.693 290.030,323.693 290.800 M320.300 326.210 C 320.194 326.765,320.226 327.292,320.371 327.382 C 320.516 327.471,320.674 327.017,320.723 326.372 C 320.833 324.935,320.564 324.831,320.300 326.210 " stroke="none" fill="#f3632b" fill-rule="evenodd">
		</path>
		<path id="path4" d="M244.277 137.499 L 288.754 137.603 288.921 139.302 L 289.088 141.000 289.044 139.200 L 289.000 137.400 244.400 137.397 L 199.800 137.395 244.277 137.499 M287.033 158.433 C 286.883 159.566,286.841 160.574,286.939 160.672 C 287.037 160.771,287.245 159.928,287.400 158.800 C 287.555 157.672,287.598 156.664,287.494 156.561 C 287.391 156.458,287.184 157.300,287.033 158.433 M162.700 173.500 C 169.575 173.561,180.825 173.561,187.700 173.500 C 194.575 173.438,188.950 173.388,175.200 173.388 C 161.450 173.388,155.825 173.438,162.700 173.500 M116.893 206.000 C 116.893 206.770,116.975 207.085,117.076 206.700 C 117.176 206.315,117.176 205.685,117.076 205.300 C 116.975 204.915,116.893 205.230,116.893 206.000 M282.114 215.000 C 282.117 216.100,282.195 216.503,282.287 215.895 C 282.379 215.286,282.377 214.386,282.282 213.895 C 282.187 213.403,282.111 213.900,282.114 215.000 M281.314 223.800 C 281.317 224.900,281.395 225.303,281.487 224.695 C 281.579 224.086,281.577 223.186,281.482 222.695 C 281.387 222.203,281.311 222.700,281.314 223.800 M280.520 232.800 C 280.520 234.010,280.595 234.505,280.687 233.900 C 280.778 233.295,280.778 232.305,280.687 231.700 C 280.595 231.095,280.520 231.590,280.520 232.800 M279.714 241.800 C 279.717 242.900,279.795 243.303,279.887 242.695 C 279.979 242.086,279.977 241.186,279.882 240.695 C 279.787 240.203,279.711 240.700,279.714 241.800 M221.274 245.498 L 242.748 245.607 242.912 246.503 C 243.055 247.277,243.072 247.263,243.039 246.400 L 243.000 245.400 221.400 245.395 L 199.800 245.389 221.274 245.498 M278.901 251.000 C 278.905 251.880,278.987 252.193,279.083 251.695 C 279.179 251.198,279.175 250.478,279.075 250.095 C 278.975 249.713,278.896 250.120,278.901 251.000 M242.093 255.200 C 242.093 255.970,242.175 256.285,242.276 255.900 C 242.376 255.515,242.376 254.885,242.276 254.500 C 242.175 254.115,242.093 254.430,242.093 255.200 M278.101 260.200 C 278.105 261.080,278.187 261.393,278.283 260.895 C 278.379 260.398,278.375 259.678,278.275 259.295 C 278.175 258.913,278.096 259.320,278.101 260.200 M131.100 262.700 C 135.995 262.763,144.005 262.763,148.900 262.700 C 153.795 262.636,149.790 262.584,140.000 262.584 C 130.210 262.584,126.205 262.636,131.100 262.700 M241.309 264.400 C 241.309 265.390,241.387 265.795,241.482 265.300 C 241.578 264.805,241.578 263.995,241.482 263.500 C 241.387 263.005,241.309 263.410,241.309 264.400 M158.493 268.400 C 158.493 269.170,158.575 269.485,158.676 269.100 C 158.776 268.715,158.776 268.085,158.676 267.700 C 158.575 267.315,158.493 267.630,158.493 268.400 M277.320 269.600 C 277.320 270.810,277.395 271.305,277.487 270.700 C 277.578 270.095,277.578 269.105,277.487 268.500 C 277.395 267.895,277.320 268.390,277.320 269.600 M122.501 269.400 C 122.505 270.280,122.587 270.593,122.683 270.095 C 122.779 269.598,122.775 268.878,122.675 268.495 C 122.575 268.113,122.496 268.520,122.501 269.400 M240.514 273.400 C 240.517 274.500,240.595 274.903,240.687 274.295 C 240.779 273.686,240.777 272.786,240.682 272.295 C 240.587 271.803,240.511 272.300,240.514 273.400 M159.314 277.800 C 159.317 278.900,159.395 279.303,159.487 278.695 C 159.579 278.086,159.577 277.186,159.482 276.695 C 159.387 276.203,159.311 276.700,159.314 277.800 M276.514 278.600 C 276.517 279.700,276.595 280.103,276.687 279.495 C 276.779 278.886,276.777 277.986,276.682 277.495 C 276.587 277.003,276.511 277.500,276.514 278.600 M123.314 279.000 C 123.317 280.100,123.395 280.503,123.487 279.895 C 123.579 279.286,123.577 278.386,123.482 277.895 C 123.387 277.403,123.311 277.900,123.314 279.000 M239.720 282.400 C 239.720 283.610,239.795 284.105,239.887 283.500 C 239.978 282.895,239.978 281.905,239.887 281.300 C 239.795 280.695,239.720 281.190,239.720 282.400 M160.109 287.200 C 160.109 288.190,160.187 288.595,160.282 288.100 C 160.378 287.605,160.378 286.795,160.282 286.300 C 160.187 285.805,160.109 286.210,160.109 287.200 M275.714 287.400 C 275.717 288.500,275.795 288.903,275.887 288.295 C 275.979 287.686,275.977 286.786,275.882 286.295 C 275.787 285.803,275.711 286.300,275.714 287.400 M124.093 288.400 C 124.093 289.170,124.175 289.485,124.276 289.100 C 124.376 288.715,124.376 288.085,124.276 287.700 C 124.175 287.315,124.093 287.630,124.093 288.400 M274.893 296.800 C 274.893 297.570,274.975 297.885,275.076 297.500 C 275.176 297.115,275.176 296.485,275.076 296.100 C 274.975 295.715,274.893 296.030,274.893 296.800 M124.893 297.200 C 124.893 297.970,124.975 298.285,125.076 297.900 C 125.176 297.515,125.176 296.885,125.076 296.500 C 124.975 296.115,124.893 296.430,124.893 297.200 M274.093 305.600 C 274.093 306.370,274.175 306.685,274.276 306.300 C 274.376 305.915,274.376 305.285,274.276 304.900 C 274.175 304.515,274.093 304.830,274.093 305.600 M273.293 314.400 C 273.293 315.170,273.375 315.485,273.476 315.100 C 273.576 314.715,273.576 314.085,273.476 313.700 C 273.375 313.315,273.293 313.630,273.293 314.400 M126.493 315.200 C 126.493 315.970,126.575 316.285,126.676 315.900 C 126.776 315.515,126.776 314.885,126.676 314.500 C 126.575 314.115,126.493 314.430,126.493 315.200 " stroke="none" fill="#ef9272" fill-rule="evenodd">
		</path>
		<path id="path5" d="M133.131 137.500 C 145.523 137.559,165.683 137.559,177.931 137.500 C 190.179 137.441,180.040 137.393,155.400 137.393 C 130.760 137.393,120.739 137.441,133.131 137.500 M288.752 141.913 C 288.621 142.707,288.679 143.081,288.901 142.859 C 289.103 142.657,289.201 142.067,289.119 141.546 C 288.993 140.745,288.937 140.802,288.752 141.913 M110.806 143.033 C 110.809 144.115,110.997 145.270,111.224 145.600 C 111.514 146.024,111.557 145.496,111.368 143.800 C 111.032 140.791,110.798 140.472,110.806 143.033 M287.818 151.418 C 287.665 152.439,287.622 153.355,287.722 153.455 C 287.822 153.555,288.029 152.802,288.182 151.782 C 288.335 150.761,288.378 149.845,288.278 149.745 C 288.178 149.645,287.971 150.398,287.818 151.418 M111.628 151.633 C 111.644 152.605,111.806 153.760,111.990 154.200 C 112.192 154.683,112.238 154.049,112.107 152.600 C 111.845 149.710,111.589 149.193,111.628 151.633 M112.423 160.233 C 112.436 161.095,112.603 162.520,112.794 163.400 C 113.052 164.586,113.084 164.224,112.919 162.000 C 112.677 158.747,112.386 157.710,112.423 160.233 M286.901 162.200 C 286.905 163.080,286.987 163.393,287.083 162.895 C 287.179 162.398,287.175 161.678,287.075 161.295 C 286.975 160.913,286.896 161.320,286.901 162.200 M113.285 169.400 C 113.277 170.060,113.410 171.500,113.582 172.600 C 113.836 174.235,113.897 174.345,113.917 173.200 C 113.930 172.430,113.797 170.990,113.620 170.000 C 113.388 168.691,113.296 168.528,113.285 169.400 M286.101 171.000 C 286.105 171.880,286.187 172.193,286.283 171.695 C 286.379 171.198,286.375 170.478,286.275 170.095 C 286.175 169.713,286.096 170.120,286.101 171.000 M150.272 175.400 C 150.399 176.500,150.569 177.475,150.651 177.567 C 150.932 177.882,150.720 175.399,150.380 174.400 C 150.151 173.726,150.116 174.051,150.272 175.400 M114.283 180.800 C 114.404 182.670,114.570 184.275,114.651 184.367 C 114.922 184.670,114.747 181.032,114.402 179.200 C 114.157 177.892,114.124 178.330,114.283 180.800 M150.924 181.800 C 150.926 183.120,151.001 183.612,151.090 182.893 C 151.179 182.174,151.177 181.094,151.086 180.493 C 150.995 179.892,150.922 180.480,150.924 181.800 M151.293 185.600 C 151.293 186.370,151.375 186.685,151.476 186.300 C 151.576 185.915,151.576 185.285,151.476 184.900 C 151.375 184.515,151.293 184.830,151.293 185.600 M114.893 187.600 C 114.893 188.370,114.975 188.685,115.076 188.300 C 115.176 187.915,115.176 187.285,115.076 186.900 C 114.975 186.515,114.893 186.830,114.893 187.600 M151.623 190.433 C 151.636 191.625,151.797 193.320,151.982 194.200 C 152.210 195.288,152.249 194.648,152.103 192.200 C 151.862 188.151,151.588 187.143,151.623 190.433 M115.324 191.400 C 115.326 192.720,115.401 193.212,115.490 192.493 C 115.579 191.774,115.577 190.694,115.486 190.093 C 115.395 189.492,115.322 190.080,115.324 191.400 M116.124 200.200 C 116.126 201.520,116.201 202.012,116.290 201.293 C 116.379 200.574,116.377 199.494,116.286 198.893 C 116.195 198.292,116.122 198.880,116.124 200.200 M152.677 201.800 C 152.798 203.560,152.965 205.075,153.049 205.167 C 153.319 205.464,153.150 202.250,152.799 200.400 C 152.542 199.047,152.512 199.394,152.677 201.800 M116.501 205.400 C 116.505 206.280,116.587 206.593,116.683 206.095 C 116.779 205.598,116.775 204.878,116.675 204.495 C 116.575 204.113,116.496 204.520,116.501 205.400 M116.934 210.000 C 116.934 211.650,117.005 212.325,117.091 211.500 C 117.178 210.675,117.178 209.325,117.091 208.500 C 117.005 207.675,116.934 208.350,116.934 210.000 M117.737 218.600 C 117.739 220.360,117.809 221.030,117.893 220.089 C 117.978 219.149,117.977 217.709,117.891 216.889 C 117.805 216.070,117.736 216.840,117.737 218.600 M282.101 218.200 C 282.105 219.080,282.187 219.393,282.283 218.895 C 282.379 218.398,282.375 217.678,282.275 217.295 C 282.175 216.913,282.096 217.320,282.101 218.200 M118.537 227.400 C 118.539 229.160,118.609 229.830,118.693 228.889 C 118.778 227.949,118.777 226.509,118.691 225.689 C 118.605 224.870,118.536 225.640,118.537 227.400 M281.301 227.000 C 281.305 227.880,281.387 228.193,281.483 227.695 C 281.579 227.198,281.575 226.478,281.475 226.095 C 281.375 225.713,281.296 226.120,281.301 227.000 M119.247 236.633 C 119.273 238.155,119.428 239.940,119.590 240.600 C 119.752 241.260,119.796 240.090,119.688 238.000 C 119.455 233.525,119.180 232.670,119.247 236.633 M280.501 236.200 C 280.505 237.080,280.587 237.393,280.683 236.895 C 280.779 236.398,280.775 235.678,280.675 235.295 C 280.575 234.913,280.496 235.320,280.501 236.200 M120.134 244.400 L 120.200 245.400 160.000 245.403 L 199.800 245.406 160.128 245.301 L 120.455 245.196 120.262 244.298 C 120.093 243.510,120.077 243.523,120.134 244.400 M279.693 244.800 C 279.693 245.570,279.775 245.885,279.876 245.500 C 279.976 245.115,279.976 244.485,279.876 244.100 C 279.775 243.715,279.693 244.030,279.693 244.800 M278.893 253.600 C 278.893 254.370,278.975 254.685,279.076 254.300 C 279.176 253.915,279.176 253.285,279.076 252.900 C 278.975 252.515,278.893 252.830,278.893 253.600 M241.354 260.977 C 241.232 261.294,241.203 261.879,241.289 262.277 C 241.387 262.728,241.524 262.512,241.654 261.700 C 241.871 260.338,241.730 259.996,241.354 260.977 M121.647 264.100 C 121.673 265.035,121.831 266.340,121.997 267.000 C 122.207 267.836,122.284 267.321,122.250 265.304 C 122.222 263.711,122.065 262.406,121.900 262.404 C 121.735 262.402,121.621 263.165,121.647 264.100 M158.001 263.852 C 158.186 264.703,158.433 265.850,158.548 266.400 C 158.664 266.950,158.682 266.424,158.590 265.231 C 158.497 264.037,158.251 262.891,158.042 262.682 C 157.804 262.444,157.788 262.877,158.001 263.852 M240.649 269.415 C 240.512 269.773,240.418 270.456,240.441 270.933 C 240.467 271.481,240.603 271.286,240.810 270.403 C 241.160 268.916,241.065 268.333,240.649 269.415 M122.440 272.833 C 122.462 274.025,122.627 275.450,122.806 276.000 C 122.999 276.592,123.042 275.776,122.911 274.000 C 122.647 270.436,122.384 269.783,122.440 272.833 M158.863 272.200 C 158.854 272.640,158.995 273.720,159.177 274.600 L 159.508 276.200 159.514 274.800 C 159.517 274.030,159.376 272.950,159.200 272.400 C 158.941 271.591,158.877 271.553,158.863 272.200 M239.849 278.215 C 239.712 278.573,239.618 279.256,239.641 279.733 C 239.667 280.281,239.803 280.086,240.010 279.203 C 240.360 277.716,240.265 277.133,239.849 278.215 M159.877 282.800 C 160.003 284.230,160.172 285.475,160.253 285.567 C 160.542 285.895,160.314 282.180,159.984 281.200 C 159.774 280.573,159.734 281.170,159.877 282.800 M276.352 281.513 C 276.221 282.307,276.279 282.681,276.501 282.459 C 276.703 282.257,276.801 281.667,276.719 281.146 C 276.593 280.345,276.537 280.402,276.352 281.513 M123.240 282.233 C 123.262 283.095,123.433 284.250,123.621 284.800 C 123.842 285.448,123.880 284.955,123.731 283.400 C 123.463 280.620,123.182 279.951,123.240 282.233 M238.768 289.300 C 238.649 290.160,238.710 290.650,238.912 290.448 C 239.105 290.255,239.198 289.581,239.119 288.949 C 238.987 287.891,238.959 287.919,238.768 289.300 M275.654 289.867 C 275.625 290.344,275.496 291.064,275.370 291.467 C 275.152 292.161,275.164 292.162,275.596 291.488 C 275.847 291.097,275.975 290.377,275.881 289.888 C 275.709 289.001,275.709 289.001,275.654 289.867 M124.047 290.833 C 124.073 291.585,124.241 292.740,124.420 293.400 C 124.635 294.189,124.670 293.778,124.523 292.200 C 124.277 289.555,123.973 288.681,124.047 290.833 M163.400 291.600 C 164.501 292.073,164.892 292.073,164.600 291.600 C 164.464 291.380,163.958 291.213,163.476 291.228 C 162.631 291.255,162.629 291.269,163.400 291.600 M175.200 294.800 C 175.530 295.013,176.070 295.188,176.400 295.188 C 176.933 295.188,176.933 295.145,176.400 294.800 C 176.070 294.587,175.530 294.412,175.200 294.412 C 174.667 294.412,174.667 294.455,175.200 294.800 M184.200 297.200 C 184.640 297.389,185.270 297.544,185.600 297.544 C 185.978 297.544,185.904 297.417,185.400 297.200 C 184.960 297.011,184.330 296.856,184.000 296.856 C 183.622 296.856,183.696 296.983,184.200 297.200 M214.000 297.200 C 213.176 297.464,213.141 297.526,213.800 297.554 C 214.240 297.573,214.870 297.413,215.200 297.200 C 215.901 296.747,215.414 296.747,214.000 297.200 M187.200 297.982 C 187.530 298.205,188.145 298.391,188.567 298.394 C 189.590 298.402,189.271 298.173,187.800 297.844 C 186.924 297.648,186.762 297.685,187.200 297.982 M274.752 299.113 C 274.621 299.907,274.679 300.281,274.901 300.059 C 275.103 299.857,275.201 299.267,275.119 298.746 C 274.993 297.945,274.937 298.002,274.752 299.113 M124.893 299.600 C 124.895 301.365,125.491 303.988,125.530 302.400 C 125.543 301.850,125.405 300.680,125.223 299.800 L 124.892 298.200 124.893 299.600 M193.000 299.600 C 193.440 299.789,194.160 299.938,194.600 299.932 C 195.243 299.923,195.204 299.857,194.400 299.600 C 193.032 299.162,191.981 299.162,193.000 299.600 M196.833 300.544 C 196.925 300.623,197.540 300.808,198.200 300.956 C 199.076 301.152,199.238 301.115,198.800 300.818 C 198.260 300.453,196.432 300.198,196.833 300.544 M125.652 309.000 C 125.630 310.100,125.787 311.270,126.000 311.600 C 126.493 312.364,126.504 310.928,126.023 308.600 L 125.692 307.000 125.652 309.000 M126.400 317.376 C 126.400 317.913,126.547 318.444,126.728 318.555 C 126.908 318.667,126.977 318.227,126.882 317.579 C 126.672 316.149,126.400 316.035,126.400 317.376 M165.000 329.600 C 165.136 329.820,165.642 329.987,166.124 329.972 C 166.969 329.945,166.971 329.931,166.200 329.600 C 165.099 329.127,164.708 329.127,165.000 329.600 M168.000 330.382 C 168.330 330.605,168.945 330.791,169.367 330.794 C 170.390 330.802,170.071 330.573,168.600 330.244 C 167.724 330.048,167.562 330.085,168.000 330.382 M170.800 331.182 C 171.130 331.405,171.745 331.591,172.167 331.594 C 173.190 331.602,172.871 331.373,171.400 331.044 C 170.524 330.848,170.362 330.885,170.800 331.182 M173.600 331.982 C 173.930 332.205,174.545 332.391,174.967 332.394 C 175.990 332.402,175.671 332.173,174.200 331.844 C 173.324 331.648,173.162 331.685,173.600 331.982 M176.400 332.752 C 176.730 332.938,177.630 333.202,178.400 333.338 C 179.243 333.488,179.561 333.452,179.200 333.248 C 178.870 333.062,177.970 332.798,177.200 332.662 C 176.357 332.512,176.039 332.548,176.400 332.752 M180.033 333.744 C 180.125 333.823,180.740 334.008,181.400 334.156 C 182.276 334.352,182.438 334.315,182.000 334.018 C 181.460 333.653,179.632 333.398,180.033 333.744 M182.833 334.544 C 182.925 334.623,183.540 334.808,184.200 334.956 C 185.076 335.152,185.238 335.115,184.800 334.818 C 184.260 334.453,182.432 334.198,182.833 334.544 M186.600 335.600 C 187.040 335.789,187.670 335.944,188.000 335.944 C 188.378 335.944,188.304 335.817,187.800 335.600 C 187.360 335.411,186.730 335.256,186.400 335.256 C 186.022 335.256,186.096 335.383,186.600 335.600 " stroke="none" fill="#e47454" fill-rule="evenodd">
		</path>
		<path id="path6" d="M111.055 137.911 C 110.949 138.082,111.016 139.657,111.205 141.411 C 111.538 144.516,111.938 148.971,112.801 159.200 C 113.033 161.950,113.391 166.000,113.597 168.200 C 113.802 170.400,114.164 174.360,114.401 177.000 C 114.639 179.640,114.991 183.060,115.183 184.600 L 115.534 187.400 115.345 184.000 C 115.242 182.130,114.885 177.630,114.554 174.000 C 113.755 165.260,113.090 157.673,112.014 145.000 C 111.789 142.360,111.500 139.705,111.371 139.101 L 111.137 138.002 199.668 137.900 L 288.200 137.798 199.724 137.699 C 151.062 137.645,111.161 137.740,111.055 137.911 M150.080 173.280 C 149.816 173.544,149.618 174.129,149.640 174.580 C 149.673 175.267,149.725 175.238,149.958 174.400 L 150.236 173.400 175.018 173.195 L 199.800 172.991 175.180 172.895 C 156.457 172.823,150.445 172.915,150.080 173.280 M150.297 181.200 C 150.415 183.510,150.576 185.475,150.656 185.567 C 150.941 185.896,150.746 180.165,150.419 178.600 C 150.200 177.556,150.158 178.460,150.297 181.200 M151.097 190.000 C 151.215 192.310,151.376 194.275,151.456 194.367 C 151.741 194.696,151.546 188.965,151.219 187.400 C 151.000 186.356,150.958 187.260,151.097 190.000 M115.630 190.233 C 115.646 191.755,115.811 193.810,115.996 194.800 C 116.221 196.002,116.261 195.139,116.115 192.200 C 115.867 187.215,115.585 186.072,115.630 190.233 M151.655 196.000 C 151.589 198.470,152.714 208.874,153.086 209.246 C 153.294 209.454,163.340 209.561,176.823 209.500 L 200.200 209.393 176.772 209.297 L 153.344 209.200 152.872 205.655 C 152.612 203.705,152.390 201.140,152.377 199.955 C 152.364 198.770,152.205 197.080,152.023 196.200 L 151.692 194.600 151.655 196.000 M116.423 199.633 C 116.436 200.825,116.602 202.520,116.792 203.400 C 117.032 204.514,117.070 203.906,116.915 201.400 C 116.666 197.347,116.388 196.350,116.423 199.633 M117.223 208.633 C 117.236 209.715,117.403 211.320,117.595 212.200 C 117.844 213.343,117.880 212.828,117.721 210.400 C 117.472 206.612,117.188 205.603,117.223 208.633 M118.097 217.600 C 118.091 218.590,118.221 220.480,118.385 221.800 L 118.682 224.200 118.706 222.000 C 118.719 220.790,118.590 218.900,118.418 217.800 L 118.107 215.800 118.097 217.600 M118.890 226.800 C 118.884 227.570,119.016 229.190,119.183 230.400 L 119.487 232.600 119.514 230.800 C 119.529 229.810,119.397 228.190,119.220 227.200 C 118.927 225.551,118.899 225.517,118.890 226.800 M119.879 238.000 C 120.002 239.870,120.170 241.475,120.251 241.567 C 120.539 241.889,120.350 237.782,120.005 236.200 C 119.756 235.057,119.720 235.572,119.879 238.000 M120.470 244.200 C 120.610 244.996,120.926 245.000,181.805 245.002 L 243.000 245.004 182.200 244.903 C 124.803 244.808,121.370 244.763,120.864 244.101 C 120.363 243.446,120.337 243.453,120.470 244.200 M122.262 265.300 C 122.590 268.583,122.800 268.726,122.800 265.667 L 122.800 263.200 140.200 263.200 L 157.600 263.200 157.647 265.100 C 157.673 266.145,157.832 267.540,158.000 268.200 L 158.305 269.400 158.353 267.956 C 158.379 267.162,158.286 265.677,158.146 264.656 L 157.891 262.800 139.952 262.800 L 122.012 262.800 122.262 265.300 M158.423 272.233 C 158.436 273.755,158.604 275.720,158.797 276.600 C 159.035 277.689,159.076 276.860,158.924 274.000 C 158.666 269.159,158.389 268.184,158.423 272.233 M123.081 273.600 C 123.203 275.470,123.370 277.075,123.451 277.167 C 123.733 277.482,123.505 272.598,123.182 271.400 C 122.989 270.684,122.948 271.571,123.081 273.600 M123.884 283.000 C 124.006 285.200,124.171 287.075,124.253 287.167 C 124.537 287.488,124.302 281.387,123.984 280.200 C 123.800 279.510,123.757 280.701,123.884 283.000 M159.304 281.800 C 159.299 283.120,159.432 284.740,159.600 285.400 L 159.905 286.600 159.913 285.200 C 159.917 284.430,159.784 282.810,159.617 281.600 L 159.313 279.400 159.304 281.800 M124.491 289.600 C 124.489 290.590,124.621 292.480,124.785 293.800 L 125.082 296.200 125.094 293.200 C 125.100 291.550,124.968 289.660,124.800 289.000 C 124.526 287.925,124.494 287.987,124.491 289.600 M160.131 290.000 C 160.189 291.180,160.357 291.415,161.200 291.493 C 162.079 291.575,162.104 291.546,161.400 291.253 C 160.960 291.070,160.479 290.398,160.331 289.760 C 160.078 288.672,160.066 288.687,160.131 290.000 M162.990 291.984 C 163.132 292.213,163.717 292.400,164.290 292.400 C 165.544 292.400,165.399 292.208,163.866 291.840 C 163.123 291.662,162.821 291.711,162.990 291.984 M165.790 292.784 C 165.932 293.013,166.517 293.200,167.090 293.200 C 168.344 293.200,168.199 293.008,166.666 292.640 C 165.923 292.462,165.621 292.511,165.790 292.784 M168.490 293.424 C 168.613 293.547,170.128 294.009,171.857 294.451 C 173.586 294.893,175.540 295.407,176.200 295.593 C 184.722 297.991,189.690 299.243,189.891 299.042 C 190.003 298.930,189.578 298.724,188.947 298.584 C 188.316 298.443,187.260 298.170,186.600 297.976 C 185.297 297.593,182.201 296.758,177.800 295.601 C 176.260 295.197,173.650 294.495,172.000 294.042 C 168.866 293.182,168.117 293.050,168.490 293.424 M125.478 300.800 C 125.600 303.110,125.768 305.075,125.850 305.167 C 126.140 305.489,125.902 298.986,125.580 297.800 C 125.392 297.104,125.349 298.364,125.478 300.800 M190.433 299.344 C 190.525 299.423,191.140 299.608,191.800 299.756 C 192.676 299.952,192.838 299.915,192.400 299.618 C 191.860 299.253,190.032 298.998,190.433 299.344 M194.000 300.400 C 195.368 300.838,196.419 300.838,195.400 300.400 C 194.960 300.211,194.240 300.062,193.800 300.068 C 193.157 300.077,193.196 300.143,194.000 300.400 M197.000 301.200 C 197.440 301.389,198.160 301.544,198.600 301.544 L 199.400 301.544 198.600 301.200 C 198.160 301.011,197.440 300.856,197.000 300.856 L 196.200 300.856 197.000 301.200 M126.276 309.600 C 126.400 311.910,126.568 313.875,126.650 313.967 C 126.948 314.299,126.745 308.560,126.403 307.000 C 126.165 305.911,126.124 306.740,126.276 309.600 M126.854 316.000 C 126.794 318.584,126.599 318.437,132.200 320.055 C 135.828 321.103,141.959 322.744,143.000 322.946 C 144.610 323.258,143.239 322.661,140.800 321.988 C 138.597 321.381,136.529 320.788,135.200 320.385 C 134.650 320.217,132.725 319.680,130.923 319.191 L 127.645 318.302 127.270 316.251 L 126.895 314.200 126.854 316.000 M144.433 323.344 C 144.905 323.750,146.843 323.993,146.610 323.616 C 146.468 323.387,145.883 323.200,145.310 323.200 C 144.736 323.200,144.342 323.265,144.433 323.344 M147.233 324.144 C 147.705 324.550,149.643 324.793,149.410 324.416 C 149.268 324.187,148.683 324.000,148.110 324.000 C 147.536 324.000,147.142 324.065,147.233 324.144 M150.033 324.944 C 150.505 325.350,152.443 325.593,152.210 325.216 C 152.068 324.987,151.483 324.800,150.910 324.800 C 150.336 324.800,149.942 324.865,150.033 324.944 M153.800 326.000 C 154.996 326.514,155.995 326.514,155.200 326.000 C 154.870 325.787,154.240 325.622,153.800 325.634 L 153.000 325.656 153.800 326.000 M156.600 326.800 C 157.796 327.314,158.795 327.314,158.000 326.800 C 157.670 326.587,157.040 326.422,156.600 326.434 L 155.800 326.456 156.600 326.800 M158.833 327.344 C 159.305 327.750,161.243 327.993,161.010 327.616 C 160.868 327.387,160.283 327.200,159.710 327.200 C 159.136 327.200,158.742 327.265,158.833 327.344 M162.400 328.400 C 163.188 328.909,164.115 328.909,163.800 328.400 C 163.664 328.180,163.158 328.003,162.676 328.006 C 161.964 328.011,161.912 328.085,162.400 328.400 M165.400 329.200 C 165.840 329.389,166.470 329.544,166.800 329.544 C 167.178 329.544,167.104 329.417,166.600 329.200 C 166.160 329.011,165.530 328.856,165.200 328.856 C 164.822 328.856,164.896 328.983,165.400 329.200 M168.200 330.000 C 169.301 330.473,169.692 330.473,169.400 330.000 C 169.264 329.780,168.758 329.613,168.276 329.628 C 167.431 329.655,167.429 329.669,168.200 330.000 M171.000 330.800 C 172.196 331.314,173.195 331.314,172.400 330.800 C 172.070 330.587,171.440 330.422,171.000 330.434 L 170.200 330.456 171.000 330.800 M174.000 331.600 C 174.330 331.813,174.960 331.978,175.400 331.966 L 176.200 331.944 175.400 331.600 C 174.204 331.086,173.205 331.086,174.000 331.600 M176.800 332.400 C 177.130 332.613,177.760 332.778,178.200 332.766 L 179.000 332.744 178.200 332.400 C 177.004 331.886,176.005 331.886,176.800 332.400 M179.269 333.002 C 179.515 333.249,184.935 334.734,186.600 335.011 C 187.260 335.121,186.000 334.669,183.800 334.007 C 179.869 332.823,178.867 332.601,179.269 333.002 M188.069 335.402 C 188.216 335.550,189.026 335.844,189.868 336.058 C 190.711 336.271,191.940 336.599,192.600 336.786 C 197.178 338.088,199.802 338.732,199.946 338.587 C 200.139 338.394,199.765 338.267,197.000 337.585 C 195.900 337.314,193.920 336.772,192.600 336.380 C 189.423 335.437,187.741 335.074,188.069 335.402 " stroke="none" fill="#eca494" fill-rule="evenodd">
		</path>
		<path id="path7" d="M288.101 146.200 C 288.105 147.080,288.187 147.393,288.283 146.895 C 288.379 146.398,288.375 145.678,288.275 145.295 C 288.175 144.913,288.096 145.320,288.101 146.200 M287.029 156.029 C 286.876 157.379,286.833 158.566,286.933 158.667 C 287.034 158.767,287.244 157.747,287.400 156.400 C 287.556 155.053,287.599 153.866,287.495 153.762 C 287.391 153.658,287.181 154.678,287.029 156.029 M286.200 165.200 C 286.043 166.766,286.000 168.133,286.104 168.237 C 286.208 168.342,286.420 167.144,286.575 165.575 C 286.730 164.006,286.773 162.639,286.671 162.538 C 286.569 162.436,286.357 163.634,286.200 165.200 M221.069 173.500 C 232.767 173.559,252.027 173.559,263.869 173.500 C 275.711 173.441,266.140 173.393,242.600 173.393 C 219.060 173.393,209.371 173.441,221.069 173.500 M220.531 209.500 C 231.932 209.559,250.472 209.559,261.731 209.500 C 272.989 209.441,263.660 209.393,241.000 209.393 C 218.340 209.393,209.129 209.441,220.531 209.500 M282.256 210.484 C 282.121 210.988,282.028 211.850,282.049 212.400 C 282.072 212.989,282.231 212.671,282.436 211.625 C 282.803 209.752,282.673 208.927,282.256 210.484 M281.709 217.600 C 281.709 218.590,281.787 218.995,281.882 218.500 C 281.978 218.005,281.978 217.195,281.882 216.700 C 281.787 216.205,281.709 216.610,281.709 217.600 M281.293 220.800 C 281.293 221.570,281.375 221.885,281.476 221.500 C 281.576 221.115,281.576 220.485,281.476 220.100 C 281.375 219.715,281.293 220.030,281.293 220.800 M280.600 228.000 C 280.444 229.347,280.401 230.534,280.505 230.638 C 280.609 230.742,280.819 229.722,280.971 228.371 C 281.124 227.021,281.167 225.834,281.067 225.733 C 280.966 225.633,280.756 226.653,280.600 228.000 M280.101 235.400 C 280.105 236.280,280.187 236.593,280.283 236.095 C 280.379 235.598,280.375 234.878,280.275 234.495 C 280.175 234.113,280.096 234.520,280.101 235.400 M279.701 238.600 C 279.705 239.480,279.787 239.793,279.883 239.295 C 279.979 238.798,279.975 238.078,279.875 237.695 C 279.775 237.313,279.696 237.720,279.701 238.600 M278.914 247.800 C 278.917 248.900,278.995 249.303,279.087 248.695 C 279.179 248.086,279.177 247.186,279.082 246.695 C 278.987 246.203,278.911 246.700,278.914 247.800 M242.920 249.600 C 242.920 250.810,242.995 251.305,243.087 250.700 C 243.178 250.095,243.178 249.105,243.087 248.500 C 242.995 247.895,242.920 248.390,242.920 249.600 M278.493 253.200 C 278.493 253.970,278.575 254.285,278.676 253.900 C 278.776 253.515,278.776 252.885,278.676 252.500 C 278.575 252.115,278.493 252.430,278.493 253.200 M278.120 256.800 C 278.120 258.010,278.195 258.505,278.287 257.900 C 278.378 257.295,278.378 256.305,278.287 255.700 C 278.195 255.095,278.120 255.590,278.120 256.800 M242.120 258.400 C 242.120 259.610,242.195 260.105,242.287 259.500 C 242.378 258.895,242.378 257.905,242.287 257.300 C 242.195 256.695,242.120 257.190,242.120 258.400 M277.693 262.000 C 277.693 262.770,277.775 263.085,277.876 262.700 C 277.976 262.315,277.976 261.685,277.876 261.300 C 277.775 260.915,277.693 261.230,277.693 262.000 M241.693 263.600 C 241.693 264.370,241.775 264.685,241.876 264.300 C 241.976 263.915,241.976 263.285,241.876 262.900 C 241.775 262.515,241.693 262.830,241.693 263.600 M277.320 265.600 C 277.320 266.810,277.395 267.305,277.487 266.700 C 277.578 266.095,277.578 265.105,277.487 264.500 C 277.395 263.895,277.320 264.390,277.320 265.600 M241.314 267.800 C 241.317 268.900,241.395 269.303,241.487 268.695 C 241.579 268.086,241.577 267.186,241.482 266.695 C 241.387 266.203,241.311 266.700,241.314 267.800 M240.893 272.400 C 240.893 273.170,240.975 273.485,241.076 273.100 C 241.176 272.715,241.176 272.085,241.076 271.700 C 240.975 271.315,240.893 271.630,240.893 272.400 M276.520 274.800 C 276.520 276.010,276.595 276.505,276.687 275.900 C 276.778 275.295,276.778 274.305,276.687 273.700 C 276.595 273.095,276.520 273.590,276.520 274.800 M240.520 277.200 C 240.520 278.410,240.595 278.905,240.687 278.300 C 240.778 277.695,240.778 276.705,240.687 276.100 C 240.595 275.495,240.520 275.990,240.520 277.200 M275.709 284.000 C 275.709 284.990,275.787 285.395,275.882 284.900 C 275.978 284.405,275.978 283.595,275.882 283.100 C 275.787 282.605,275.709 283.010,275.709 284.000 M239.714 286.200 C 239.717 287.300,239.795 287.703,239.887 287.095 C 239.979 286.486,239.977 285.586,239.882 285.095 C 239.787 284.603,239.711 285.100,239.714 286.200 M239.246 289.267 C 239.221 289.634,239.096 290.264,238.970 290.667 C 238.752 291.362,238.763 291.363,239.197 290.687 C 239.448 290.296,239.573 289.666,239.473 289.287 C 239.311 288.668,239.288 288.666,239.246 289.267 M274.920 293.600 C 274.920 294.810,274.995 295.305,275.087 294.700 C 275.178 294.095,275.178 293.105,275.087 292.500 C 274.995 291.895,274.920 292.390,274.920 293.600 M230.400 293.218 C 229.962 293.515,230.124 293.552,231.000 293.356 C 232.471 293.027,232.790 292.798,231.767 292.806 C 231.345 292.809,230.730 292.995,230.400 293.218 M274.120 302.400 C 274.120 303.610,274.195 304.105,274.287 303.500 C 274.378 302.895,274.378 301.905,274.287 301.300 C 274.195 300.695,274.120 301.190,274.120 302.400 M273.693 306.000 C 273.693 306.770,273.775 307.085,273.876 306.700 C 273.976 306.315,273.976 305.685,273.876 305.300 C 273.775 304.915,273.693 305.230,273.693 306.000 M273.320 311.200 C 273.320 312.410,273.395 312.905,273.487 312.300 C 273.578 311.695,273.578 310.705,273.487 310.100 C 273.395 309.495,273.320 309.990,273.320 311.200 " stroke="none" fill="#f4ac84" fill-rule="evenodd">
		</path>
		<path id="path8" d="M129.300 77.900 C 168.185 77.956,231.815 77.956,270.700 77.900 C 309.585 77.844,277.770 77.798,200.000 77.798 C 122.230 77.798,90.415 77.844,129.300 77.900 M324.514 281.000 C 324.517 282.100,324.595 282.503,324.687 281.895 C 324.779 281.286,324.777 280.386,324.682 279.895 C 324.587 279.403,324.511 279.900,324.514 281.000 M75.314 281.400 C 75.317 282.500,75.395 282.903,75.487 282.295 C 75.579 281.686,75.577 280.786,75.482 280.295 C 75.387 279.803,75.311 280.300,75.314 281.400 " stroke="none" fill="#e83c28" fill-rule="evenodd">
		</path>
	</g>
</svg>
