<svg xmlns="http://www.w3.org/2000/svg" xmlns:xlink="http://www.w3.org/1999/xlink" id="svg" version="1.1" width="400" height="458.23754789272033" viewBox="0, 0, 400,458.23754789272033"><g id="svgg"><path id="path0" d="M148.352 234.789 C 148.352 301.226,148.270 320.307,147.984 320.307 C 147.663 320.307,133.086 316.581,120.920 313.390 C 109.496 310.393,106.502 309.646,106.384 309.761 C 106.277 309.866,106.917 318.141,107.460 323.678 C 107.928 328.462,108.850 338.881,109.290 344.368 C 109.574 347.908,109.893 350.886,109.999 350.985 C 110.105 351.085,111.226 351.454,112.490 351.807 C 113.755 352.159,116.031 352.795,117.548 353.219 C 119.065 353.644,124.858 355.248,130.421 356.784 C 135.985 358.320,141.743 359.913,143.218 360.325 C 144.693 360.736,147.107 361.407,148.582 361.815 C 150.057 362.223,152.989 363.044,155.096 363.638 C 158.870 364.703,167.447 367.071,171.341 368.123 C 174.780 369.052,183.339 371.437,185.973 372.201 C 187.362 372.603,188.569 372.862,188.655 372.775 C 188.742 372.689,188.812 322.365,188.812 260.945 L 188.812 149.272 168.582 149.272 L 148.352 149.272 148.352 234.789 M226.513 209.195 L 226.513 269.119 249.144 269.119 C 261.591 269.119,271.841 269.185,271.922 269.265 C 272.002 269.346,271.972 270.346,271.854 271.487 C 271.737 272.629,271.551 274.736,271.442 276.169 C 271.332 277.602,270.977 281.602,270.654 285.057 C 270.330 288.513,269.643 296.169,269.129 302.069 C 268.614 307.969,268.056 314.147,267.889 315.797 C 267.723 317.448,267.586 318.984,267.586 319.211 C 267.586 319.478,266.316 319.968,263.985 320.600 C 262.004 321.138,259.762 321.763,259.004 321.989 C 258.245 322.216,256.107 322.818,254.253 323.327 C 244.549 325.988,230.398 329.913,228.582 330.445 L 226.513 331.052 226.513 352.010 L 226.513 372.967 228.429 372.413 C 229.483 372.108,231.862 371.440,233.716 370.929 C 235.571 370.418,241.157 368.871,246.130 367.491 C 251.103 366.111,256.069 364.739,257.165 364.442 C 258.261 364.144,260.674 363.479,262.529 362.962 C 264.383 362.446,268.452 361.316,271.571 360.452 C 274.690 359.588,278.966 358.401,281.073 357.815 C 283.180 357.228,286.077 356.426,287.510 356.032 C 293.097 354.496,300.343 352.479,302.669 351.811 C 305.437 351.017,305.340 351.176,305.715 346.820 C 305.817 345.640,306.172 341.571,306.504 337.778 C 306.837 333.985,307.387 327.709,307.727 323.831 C 308.066 319.954,308.622 313.747,308.961 310.038 C 309.300 306.330,310.060 297.847,310.649 291.188 C 311.238 284.529,311.997 276.046,312.337 272.337 C 312.677 268.628,313.091 264.008,313.259 262.069 C 313.426 260.130,313.833 255.510,314.165 251.801 C 314.689 245.932,315.924 231.792,316.106 229.579 L 316.169 228.812 291.571 228.734 L 266.973 228.655 266.973 209.195 L 266.973 189.735 293.257 189.657 L 319.540 189.579 319.758 188.506 C 319.877 187.916,320.674 179.364,321.529 169.502 C 322.384 159.640,323.160 151.054,323.254 150.421 L 323.426 149.272 274.969 149.272 L 226.513 149.272 226.513 209.195 " stroke="none" fill="#fbfbfa" fill-rule="evenodd"/><path id="path1" d="M182.989 39.693 L 182.989 59.157 171.341 59.157 L 159.693 59.157 159.693 66.207 L 159.693 73.257 178.544 73.257 L 197.395 73.257 197.395 46.743 L 197.395 20.230 190.192 20.230 L 182.989 20.230 182.989 39.693 M204.751 36.628 L 204.751 53.027 222.605 53.026 L 240.460 53.025 240.363 56.091 L 240.266 59.157 222.508 59.157 L 204.751 59.157 204.751 66.207 L 204.751 73.257 229.732 73.257 L 254.713 73.257 254.713 56.858 L 254.713 40.460 236.858 40.460 L 219.004 40.460 219.004 37.548 L 219.004 34.636 236.858 34.636 L 254.713 34.636 254.713 27.433 L 254.713 20.230 229.732 20.230 L 204.751 20.230 204.751 36.628 " stroke="none" fill="#040404" fill-rule="evenodd"/><path id="path2" d="M212.925 114.227 C 212.426 114.726,212.698 416.245,213.197 416.245 C 213.459 416.245,215.839 415.635,218.484 414.889 C 221.130 414.143,226.605 412.618,230.651 411.500 C 237.854 409.510,240.643 408.734,246.054 407.218 C 247.529 406.804,251.080 405.823,253.946 405.037 C 259.405 403.541,262.940 402.561,268.812 400.917 C 270.751 400.374,273.234 399.687,274.330 399.389 C 275.425 399.092,279.425 397.985,283.218 396.930 C 293.606 394.040,301.019 391.987,308.659 389.883 C 317.336 387.494,316.496 388.042,316.744 384.611 C 316.857 383.044,317.293 378.038,317.713 373.487 C 318.134 368.935,319.301 355.900,320.307 344.521 C 321.313 333.142,322.419 320.728,322.765 316.935 C 323.111 313.142,323.528 308.452,323.693 306.513 C 323.858 304.575,324.057 302.299,324.135 301.456 C 324.214 300.613,324.558 296.820,324.900 293.027 C 325.243 289.234,325.798 283.096,326.134 279.387 C 326.470 275.678,327.295 266.368,327.968 258.697 C 328.641 251.027,329.538 240.958,329.962 236.322 C 330.884 226.228,331.451 219.853,332.263 210.421 C 332.596 206.544,333.078 201.165,333.333 198.467 C 333.925 192.195,335.485 174.661,336.087 167.510 C 336.342 164.475,336.757 159.854,337.008 157.241 C 337.259 154.628,337.952 146.904,338.549 140.077 C 339.146 133.249,339.906 124.810,340.238 121.322 C 340.571 117.835,340.843 114.766,340.843 114.502 C 340.843 114.001,213.425 113.727,212.925 114.227 M148.188 149.349 C 148.108 149.559,148.078 188.146,148.121 235.096 L 148.200 320.460 148.276 234.868 L 148.352 149.276 168.506 149.195 L 188.659 149.114 168.496 149.040 C 152.593 148.981,148.303 149.046,148.188 149.349 M323.254 150.421 C 323.160 151.054,322.384 159.640,321.529 169.502 C 320.674 179.364,319.877 187.916,319.758 188.506 L 319.540 189.579 293.257 189.657 L 266.973 189.735 266.973 209.195 L 266.973 228.655 291.571 228.734 L 316.169 228.812 316.106 229.579 C 315.924 231.792,314.689 245.932,314.165 251.801 C 313.833 255.510,313.426 260.130,313.259 262.069 C 313.091 264.008,312.677 268.628,312.337 272.337 C 311.997 276.046,311.238 284.529,310.649 291.188 C 310.060 297.847,309.300 306.330,308.961 310.038 C 308.622 313.747,308.066 319.954,307.727 323.831 C 307.387 327.709,306.837 333.985,306.504 337.778 C 306.172 341.571,305.817 345.640,305.715 346.820 C 305.340 351.176,305.437 351.017,302.669 351.811 C 300.343 352.479,293.097 354.496,287.510 356.032 C 286.077 356.426,283.180 357.228,281.073 357.815 C 278.966 358.401,274.690 359.588,271.571 360.452 C 268.452 361.316,264.383 362.446,262.529 362.962 C 260.674 363.479,258.261 364.144,257.165 364.442 C 256.069 364.739,251.103 366.111,246.130 367.491 C 241.157 368.871,235.571 370.418,233.716 370.929 C 231.862 371.440,229.483 372.108,228.429 372.413 L 226.513 372.967 226.513 352.010 L 226.513 331.052 228.582 330.445 C 230.398 329.913,244.549 325.988,254.253 323.327 C 256.107 322.818,258.245 322.216,259.004 321.989 C 259.762 321.763,262.004 321.138,263.985 320.600 C 266.316 319.968,267.586 319.478,267.586 319.211 C 267.586 318.984,267.723 317.448,267.889 315.797 C 268.056 314.147,268.614 307.969,269.129 302.069 C 269.643 296.169,270.330 288.513,270.654 285.057 C 270.977 281.602,271.332 277.602,271.442 276.169 C 271.551 274.736,271.737 272.629,271.854 271.487 C 271.972 270.346,272.002 269.346,271.922 269.265 C 271.841 269.185,261.591 269.119,249.144 269.119 L 226.513 269.119 226.513 209.195 L 226.513 149.272 274.969 149.272 L 323.426 149.272 323.254 150.421 M108.270 334.406 C 108.270 334.996,108.333 335.238,108.411 334.943 C 108.488 334.648,108.488 334.165,108.411 333.870 C 108.333 333.575,108.270 333.816,108.270 334.406 M108.577 337.471 C 108.577 338.061,108.640 338.303,108.717 338.008 C 108.794 337.713,108.794 337.230,108.717 336.935 C 108.640 336.640,108.577 336.881,108.577 337.471 " stroke="none" fill="#fbdc04" fill-rule="evenodd"/><path id="path3" d="M55.285 89.732 C 55.382 90.870,55.597 93.249,55.761 95.019 C 55.926 96.789,56.220 100.169,56.414 102.529 C 56.609 104.889,56.829 107.234,56.905 107.739 C 56.981 108.245,57.237 111.073,57.474 114.023 C 58.030 120.924,58.213 123.021,58.424 124.904 C 58.518 125.747,58.636 126.851,58.687 127.356 C 58.825 128.745,59.745 139.909,59.937 142.529 C 60.029 143.793,60.238 145.655,60.401 146.667 C 60.563 147.678,60.982 152.299,61.332 156.935 C 61.682 161.571,62.035 165.778,62.117 166.284 C 62.200 166.789,62.610 171.203,63.029 176.092 C 63.448 180.981,63.841 185.533,63.902 186.207 C 63.964 186.881,64.295 190.881,64.638 195.096 C 64.981 199.310,65.406 203.655,65.582 204.751 C 65.758 205.847,66.111 209.640,66.366 213.180 C 67.040 222.536,67.116 223.412,67.434 225.441 C 67.592 226.452,67.869 229.487,68.049 232.184 C 68.229 234.881,68.432 237.571,68.500 238.161 C 68.568 238.751,68.717 240.406,68.832 241.839 C 68.946 243.272,69.091 244.789,69.154 245.211 C 69.217 245.632,69.542 249.425,69.876 253.640 C 70.211 257.854,70.555 261.716,70.643 262.222 C 70.947 263.984,71.648 272.069,72.198 280.153 C 72.283 281.418,72.483 283.142,72.640 283.985 C 72.798 284.828,73.215 289.379,73.567 294.100 C 73.919 298.820,74.270 303.096,74.348 303.602 C 74.425 304.107,74.692 306.935,74.941 309.885 C 75.330 314.475,75.580 317.282,76.144 323.372 C 76.199 323.962,76.535 328.100,76.891 332.567 C 77.248 337.034,77.676 341.448,77.842 342.375 C 78.009 343.303,78.361 347.096,78.624 350.805 C 79.146 358.174,79.363 360.741,79.581 362.146 C 79.705 362.940,79.970 366.032,80.764 375.939 C 80.858 377.119,81.016 378.751,81.113 379.566 C 81.382 381.808,81.406 382.080,82.104 390.805 C 82.461 395.272,82.843 399.410,82.953 400.000 C 83.062 400.590,83.305 402.856,83.492 405.036 L 83.831 408.998 85.364 409.386 C 86.207 409.599,88.138 410.132,89.655 410.570 C 94.545 411.980,100.013 413.485,102.529 414.112 C 103.877 414.449,105.188 414.814,105.441 414.925 C 105.693 415.036,107.280 415.500,108.966 415.956 C 110.651 416.412,113.341 417.155,114.943 417.608 C 116.544 418.060,119.165 418.771,120.766 419.188 C 122.368 419.605,123.885 420.030,124.138 420.133 C 124.391 420.235,126.046 420.706,127.816 421.179 C 130.474 421.889,134.949 423.141,137.011 423.752 C 137.580 423.920,141.966 425.103,146.054 426.192 C 147.739 426.640,149.326 427.089,149.579 427.189 C 149.831 427.289,151.487 427.766,153.257 428.249 C 158.261 429.616,165.743 431.695,171.494 433.316 C 173.011 433.743,175.632 434.471,177.318 434.932 C 179.004 435.394,180.590 435.855,180.843 435.956 C 181.096 436.057,182.613 436.480,184.215 436.896 C 185.816 437.312,188.437 438.013,190.038 438.453 C 193.840 439.499,193.461 439.393,196.628 440.298 C 198.146 440.732,200.488 441.365,201.835 441.705 C 205.131 442.538,209.380 443.811,210.034 444.160 C 210.706 444.519,214.774 444.535,214.994 444.179 C 215.084 444.033,216.007 443.747,217.046 443.543 C 218.085 443.338,219.157 443.048,219.429 442.897 C 219.701 442.747,221.303 442.262,222.989 441.819 C 224.674 441.377,227.502 440.609,229.272 440.113 C 234.614 438.618,237.843 437.722,241.226 436.798 C 244.734 435.840,249.996 434.388,250.728 434.176 C 252.075 433.787,257.383 432.354,259.923 431.695 C 261.525 431.280,263.111 430.809,263.448 430.649 C 263.785 430.489,265.372 430.024,266.973 429.614 C 269.751 428.904,271.036 428.552,278.774 426.381 C 280.628 425.860,283.456 425.088,285.057 424.664 C 288.175 423.838,288.338 423.791,289.042 423.512 C 289.295 423.411,290.881 422.962,292.567 422.513 C 295.729 421.672,298.691 420.866,304.521 419.262 C 306.375 418.752,308.927 418.067,310.192 417.741 C 311.456 417.414,312.766 417.016,313.103 416.858 C 313.441 416.699,314.958 416.281,316.475 415.929 C 317.992 415.577,319.510 415.167,319.847 415.016 C 320.184 414.866,321.839 414.378,323.525 413.933 C 329.307 412.405,335.413 410.720,340.094 409.360 L 341.950 408.821 342.348 403.721 C 342.567 400.916,342.781 398.345,342.823 398.008 C 343.061 396.117,343.300 393.786,343.438 392.031 C 343.524 390.935,343.808 387.292,344.070 383.934 C 344.333 380.577,344.601 377.743,344.667 377.636 C 344.733 377.530,344.870 376.276,344.972 374.851 C 345.074 373.426,345.283 370.812,345.436 369.042 C 345.589 367.272,345.798 364.444,345.901 362.759 C 346.004 361.073,346.223 359.073,346.388 358.314 C 346.628 357.208,347.694 344.796,348.034 339.157 C 348.075 338.483,348.193 337.517,348.296 337.011 C 348.399 336.506,348.562 334.989,348.658 333.640 C 348.925 329.887,349.711 320.862,349.845 320.000 C 349.975 319.164,350.457 313.597,351.104 305.441 C 351.331 302.575,351.589 299.885,351.676 299.464 C 351.762 299.042,351.912 297.663,352.008 296.398 C 352.104 295.134,352.391 291.341,352.647 287.969 C 352.903 284.598,353.242 280.943,353.401 279.847 C 353.560 278.751,353.772 276.751,353.871 275.402 C 353.971 274.054,354.266 270.467,354.528 267.433 C 354.789 264.398,355.050 261.295,355.106 260.536 C 355.163 259.778,355.352 257.778,355.527 256.092 C 355.702 254.406,355.987 250.958,356.161 248.429 C 356.334 245.900,356.622 242.866,356.800 241.686 C 356.978 240.506,357.470 235.333,357.894 230.192 C 358.317 225.050,358.786 219.533,358.934 217.931 C 359.362 213.333,360.189 203.820,360.298 202.245 C 360.353 201.457,360.476 200.284,360.572 199.640 C 360.667 198.995,360.824 197.502,360.920 196.322 C 361.803 185.444,361.987 183.291,362.126 182.222 C 362.315 180.774,363.112 171.145,363.368 167.203 C 363.467 165.686,363.683 163.617,363.848 162.605 C 364.012 161.594,364.438 157.180,364.793 152.797 C 365.567 143.244,365.495 144.114,366.251 135.172 C 366.586 131.211,367.074 126.038,367.335 123.678 C 367.596 121.318,368.021 116.352,368.279 112.644 C 368.538 108.935,368.876 105.280,369.031 104.521 C 369.186 103.762,369.401 101.831,369.508 100.230 C 369.615 98.628,369.833 96.008,369.992 94.406 C 370.151 92.805,370.362 90.632,370.460 89.579 L 370.638 87.663 212.873 87.663 L 55.108 87.663 55.285 89.732 M340.843 114.502 C 340.843 114.766,340.571 117.835,340.238 121.322 C 339.906 124.810,339.146 133.249,338.549 140.077 C 337.952 146.904,337.259 154.628,337.008 157.241 C 336.757 159.854,336.342 164.475,336.087 167.510 C 335.485 174.661,333.925 192.195,333.333 198.467 C 333.078 201.165,332.596 206.544,332.263 210.421 C 331.451 219.853,330.884 226.228,329.962 236.322 C 329.538 240.958,328.641 251.027,327.968 258.697 C 327.295 266.368,326.470 275.678,326.134 279.387 C 325.798 283.096,325.243 289.234,324.900 293.027 C 324.558 296.820,324.214 300.613,324.135 301.456 C 324.057 302.299,323.858 304.575,323.693 306.513 C 323.528 308.452,323.111 313.142,322.765 316.935 C 322.419 320.728,321.313 333.142,320.307 344.521 C 319.301 355.900,318.134 368.935,317.713 373.487 C 317.293 378.038,316.857 383.044,316.744 384.611 C 316.496 388.042,317.336 387.494,308.659 389.883 C 301.019 391.987,293.606 394.040,283.218 396.930 C 279.425 397.985,275.425 399.092,274.330 399.389 C 273.234 399.687,270.751 400.374,268.812 400.917 C 262.940 402.561,259.405 403.541,253.946 405.037 C 251.080 405.823,247.529 406.804,246.054 407.218 C 240.643 408.734,237.854 409.510,230.651 411.500 C 226.605 412.618,221.130 414.143,218.484 414.889 C 215.839 415.635,213.459 416.245,213.197 416.245 C 212.698 416.245,212.426 114.726,212.925 114.227 C 213.425 113.727,340.843 114.001,340.843 114.502 M188.736 261.073 C 188.781 326.901,188.700 373.027,188.538 373.027 C 188.387 373.027,187.387 372.765,186.316 372.444 C 185.244 372.124,182.023 371.217,179.157 370.429 C 176.291 369.641,173.326 368.809,172.567 368.582 C 171.808 368.354,169.326 367.665,167.050 367.051 C 162.644 365.862,160.085 365.155,153.716 363.369 C 151.525 362.754,148.559 361.927,147.126 361.531 C 145.693 361.135,143.280 360.463,141.762 360.037 C 140.245 359.611,136.659 358.618,133.793 357.830 C 130.927 357.042,125.893 355.650,122.605 354.735 C 114.380 352.448,110.051 351.264,109.906 351.264 C 109.839 351.264,109.693 350.195,109.583 348.889 C 109.472 347.582,109.121 343.686,108.802 340.230 C 108.484 336.774,107.938 330.533,107.589 326.362 C 107.240 322.191,106.755 316.811,106.510 314.408 C 106.266 312.005,106.063 309.935,106.060 309.808 C 106.050 309.438,106.883 309.539,109.222 310.192 C 110.430 310.529,119.418 312.881,129.195 315.418 C 138.973 317.955,147.215 320.103,147.510 320.190 C 148.020 320.340,148.046 316.133,148.046 234.861 C 148.046 187.843,148.139 149.281,148.253 149.168 C 148.366 149.054,157.504 148.997,168.559 149.040 L 188.659 149.119 188.736 261.073 " stroke="none" fill="#d4bc04" fill-rule="evenodd"/><path id="path4" d="" stroke="none" fill="#b46084" fill-rule="evenodd"/><path id="path5" d="" stroke="none" fill="#b4c004" fill-rule="evenodd"/><path id="path6" d="" stroke="none" fill="#b4c004" fill-rule="evenodd"/><path id="path7" d="" stroke="none" fill="#b4c004" fill-rule="evenodd"/><path id="path8" d="" stroke="none" fill="#b4c004" fill-rule="evenodd"/></g></svg>