<svg xmlns="http://www.w3.org/2000/svg" xmlns:xlink="http://www.w3.org/1999/xlink" id="svg" version="1.1" width="400" height="466.32428466617756" viewBox="0, 0, 400,466.32428466617756"><g id="svgg"><path id="path0" d="M106.090 162.113 C 98.998 164.355,98.340 171.155,104.916 174.231 L 106.676 175.055 199.266 175.055 L 291.856 175.055 293.474 174.400 C 300.218 171.668,299.634 164.261,292.508 162.145 C 290.454 161.535,108.016 161.504,106.090 162.113 M107.410 202.778 C 98.958 203.880,97.311 212.365,104.951 215.445 L 106.676 216.141 198.973 216.141 L 291.269 216.141 292.883 215.487 C 299.667 212.736,299.445 205.530,292.504 203.162 C 290.900 202.616,111.512 202.243,107.410 202.778 M107.541 243.870 C 100.594 244.897,97.976 251.421,102.977 255.243 C 105.810 257.410,96.908 257.227,199.560 257.227 L 291.563 257.227 293.200 256.564 C 299.899 253.853,299.899 247.101,293.200 244.390 L 291.563 243.727 200.293 243.689 C 150.095 243.668,108.357 243.749,107.541 243.870 M154.151 323.990 C 143.471 325.498,137.643 331.766,138.362 340.970 C 138.969 348.741,141.995 351.992,153.600 357.342 C 161.259 360.873,162.877 362.938,160.344 365.948 C 158.064 368.658,149.099 368.046,141.159 364.639 C 139.787 364.050,138.500 363.497,138.298 363.411 C 138.011 363.288,137.931 364.658,137.931 369.720 L 137.931 376.186 140.279 377.092 C 160.283 384.806,179.223 374.546,175.345 358.098 C 174.090 352.774,171.296 350.273,161.108 345.353 C 153.356 341.609,151.863 340.170,153.078 337.609 C 154.507 334.598,160.963 334.651,168.884 337.740 C 170.170 338.242,171.315 338.556,171.428 338.438 C 171.692 338.164,175.843 327.759,175.728 327.661 C 172.944 325.292,160.237 323.130,154.151 323.990 M258.547 324.005 C 240.684 326.218,231.598 341.804,236.570 361.702 C 240.542 377.595,257.909 383.662,280.191 376.940 L 282.612 376.210 282.612 361.693 L 282.612 347.175 270.873 347.175 L 259.134 347.175 259.134 352.751 L 259.134 358.327 263.977 358.327 L 268.819 358.327 268.819 362.565 C 268.819 367.467,269.059 367.118,265.506 367.376 C 255.537 368.098,250.970 363.802,250.427 353.191 C 249.686 338.712,259.118 332.188,273.514 337.223 C 274.886 337.702,276.207 338.162,276.449 338.243 C 276.851 338.378,281.145 328.396,281.145 327.325 C 281.145 326.738,276.572 325.281,272.047 324.427 C 269.046 323.860,261.597 323.627,258.547 324.005 M178.723 324.761 C 178.723 324.942,181.210 332.583,191.822 365.008 L 196.361 378.879 204.922 378.801 L 213.484 378.723 221.049 355.686 C 225.210 343.015,229.195 330.833,229.905 328.613 L 231.196 324.578 223.080 324.578 L 214.963 324.578 211.077 338.885 C 206.827 354.529,206.565 355.583,205.591 360.968 C 204.933 364.604,204.925 364.624,204.713 363.169 C 204.213 359.746,202.262 351.733,198.749 338.665 L 195.001 324.725 186.862 324.647 C 182.386 324.604,178.723 324.655,178.723 324.761 M120.614 365.922 C 113.401 368.277,114.211 378.117,121.734 379.516 C 128.535 380.781,133.314 374.923,130.285 369.034 C 128.890 366.323,124.103 364.783,120.614 365.922 " stroke="none" fill="#fbfbfa" fill-rule="evenodd"/><path id="path1" d="M89.247 56.755 L 32.492 113.510 32.635 209.314 C 32.714 262.006,32.872 305.271,32.987 305.457 C 33.386 306.102,366.794 305.928,366.829 305.282 C 367.081 300.538,367.121 24.245,366.869 22.801 C 364.964 11.858,356.188 2.699,345.422 0.416 C 343.814 0.075,327.696 0.009,244.754 0.005 L 146.001 0.000 89.247 56.755 M145.849 89.508 C 144.588 99.419,137.503 108.278,128.206 111.568 C 123.206 113.337,124.928 113.280,76.924 113.280 L 33.016 113.280 89.509 56.786 L 146.001 0.293 146.084 43.653 C 146.141 73.485,146.068 87.792,145.849 89.508 M291.958 161.720 C 299.877 163.418,300.643 171.634,293.177 174.790 C 291.565 175.472,110.790 175.858,107.273 175.188 C 98.658 173.545,97.635 164.588,105.768 162.009 C 107.873 161.342,288.883 161.060,291.958 161.720 M292.170 202.924 C 298.457 204.792,300.126 210.685,295.387 214.280 C 292.483 216.483,301.512 216.302,198.386 216.217 L 105.796 216.141 104.461 215.523 C 99.573 213.262,98.257 208.241,101.734 205.121 C 103.109 203.887,103.467 203.670,105.106 203.081 C 107.248 202.310,289.590 202.158,292.170 202.924 M293.779 244.345 C 299.987 247.218,299.987 253.736,293.779 256.609 L 292.443 257.227 200.008 257.302 C 98.591 257.384,106.193 257.515,103.243 255.640 C 98.128 252.390,99.735 245.756,106.090 243.890 C 106.591 243.743,146.926 243.652,199.707 243.679 L 292.443 243.727 293.779 244.345 M1.303 306.258 C 0.990 306.512,0.909 306.630,1.124 306.520 C 1.338 306.410,1.866 306.213,2.297 306.083 C 2.927 305.893,2.962 305.842,2.477 305.821 C 2.145 305.807,1.617 306.004,1.303 306.258 M157.237 323.621 C 158.089 323.680,159.410 323.680,160.171 323.620 C 160.933 323.559,160.235 323.511,158.621 323.511 C 157.007 323.512,156.384 323.561,157.237 323.621 M262.447 323.621 C 263.381 323.680,264.833 323.679,265.675 323.620 C 266.516 323.561,265.752 323.513,263.977 323.514 C 262.201 323.515,261.513 323.563,262.447 323.621 M263.177 335.945 C 263.867 336.007,264.924 336.006,265.525 335.943 C 266.126 335.880,265.561 335.830,264.270 335.831 C 262.979 335.832,262.487 335.883,263.177 335.945 M138.022 339.692 C 138.024 340.660,138.078 341.021,138.144 340.494 C 138.209 339.966,138.208 339.174,138.141 338.733 C 138.074 338.292,138.020 338.723,138.022 339.692 M254.567 339.325 L 253.705 340.279 254.659 339.417 C 255.183 338.943,255.613 338.514,255.613 338.463 C 255.613 338.236,255.370 338.436,254.567 339.325 M258.978 352.605 L 258.988 358.474 263.748 358.555 L 268.509 358.635 268.599 362.810 L 268.690 366.985 268.754 362.656 L 268.819 358.327 263.983 358.327 L 259.147 358.327 259.057 352.531 L 258.968 346.735 258.978 352.605 M282.748 361.555 C 282.748 369.707,282.786 373.041,282.832 368.966 C 282.878 364.890,282.878 358.221,282.832 354.145 C 282.786 350.070,282.748 353.404,282.748 361.555 M235.138 348.643 C 235.138 349.208,235.198 349.439,235.272 349.156 C 235.346 348.874,235.346 348.412,235.272 348.129 C 235.198 347.847,235.138 348.078,235.138 348.643 M235.138 354.512 C 235.138 355.077,235.198 355.308,235.272 355.026 C 235.346 354.743,235.346 354.281,235.272 353.999 C 235.198 353.716,235.138 353.947,235.138 354.512 M253.558 363.408 C 253.558 363.459,253.988 363.888,254.512 364.362 L 255.466 365.224 254.604 364.270 C 253.800 363.381,253.558 363.181,253.558 363.408 M264.197 367.334 C 264.479 367.407,264.941 367.407,265.224 367.334 C 265.506 367.260,265.275 367.199,264.710 367.199 C 264.145 367.199,263.914 367.260,264.197 367.334 M131.255 372.561 C 131.258 373.206,131.319 373.436,131.389 373.071 C 131.459 372.706,131.456 372.177,131.383 371.897 C 131.309 371.616,131.252 371.915,131.255 372.561 M242.394 372.781 C 243.610 374.076,243.874 374.309,243.874 374.089 C 243.874 374.042,243.247 373.415,242.480 372.695 L 241.086 371.387 242.394 372.781 M171.371 373.808 L 170.360 374.908 171.460 373.897 C 172.484 372.956,172.695 372.707,172.471 372.707 C 172.422 372.707,171.927 373.202,171.371 373.808 M200.514 379.090 C 202.894 379.139,206.790 379.139,209.171 379.090 C 211.552 379.040,209.604 379.000,204.842 379.000 C 200.081 379.000,198.133 379.040,200.514 379.090 M150.330 379.659 C 150.613 379.733,151.075 379.733,151.357 379.659 C 151.640 379.586,151.409 379.525,150.844 379.525 C 150.279 379.525,150.048 379.586,150.330 379.659 M265.077 379.659 C 265.360 379.733,265.822 379.733,266.104 379.659 C 266.387 379.586,266.156 379.525,265.591 379.525 C 265.026 379.525,264.795 379.586,265.077 379.659 M122.891 379.958 C 123.254 380.028,123.848 380.028,124.211 379.958 C 124.574 379.888,124.277 379.830,123.551 379.830 C 122.825 379.830,122.528 379.888,122.891 379.958 M32.650 418.663 C 32.764 444.937,32.836 446.097,34.502 448.640 C 34.741 449.005,34.866 449.303,34.779 449.303 C 34.471 449.303,36.490 453.000,37.823 454.879 C 41.285 459.756,46.144 463.281,52.238 465.336 L 54.732 466.178 199.057 466.253 C 322.011 466.317,343.673 466.267,345.356 465.916 C 354.139 464.085,362.160 457.256,365.386 448.863 C 367.036 444.569,366.934 446.317,367.113 419.296 C 367.204 405.616,367.251 394.424,367.218 394.424 C 367.185 394.424,366.671 394.754,366.077 395.157 C 365.483 395.561,364.504 396.023,363.902 396.185 C 361.694 396.780,36.139 396.425,34.923 395.826 C 34.358 395.548,33.592 395.098,33.220 394.826 L 32.544 394.332 32.650 418.663 " stroke="none" fill="#df711b" fill-rule="evenodd"/><path id="path2" d="M31.479 267.865 C 30.135 269.494,23.109 278.237,10.431 294.057 C 5.451 300.271,1.174 305.592,0.926 305.881 C 0.496 306.381,0.516 306.385,1.338 305.956 C 2.081 305.569,4.329 305.506,17.535 305.504 L 32.869 305.503 32.869 285.987 C 32.869 275.253,32.815 266.471,32.749 266.471 C 32.684 266.471,32.112 267.098,31.479 267.865 M367.131 285.917 L 367.131 305.492 382.612 305.571 C 391.294 305.615,398.340 305.768,398.657 305.920 C 399.119 306.142,369.486 268.837,367.677 266.919 C 367.145 266.355,367.131 266.818,367.131 285.917 " stroke="none" fill="#242423" fill-rule="evenodd"/><path id="path3" d="M154.903 161.629 C 179.813 161.670,220.488 161.670,245.292 161.629 C 270.095 161.587,249.714 161.554,200.000 161.554 C 150.286 161.554,129.992 161.587,154.903 161.629 M178.622 324.505 C 178.546 324.626,180.949 324.691,183.960 324.650 C 194.073 324.511,195.068 324.408,186.885 324.346 C 182.415 324.312,178.697 324.384,178.622 324.505 M219.167 324.504 C 221.477 324.554,225.174 324.554,227.384 324.504 C 229.593 324.454,227.704 324.414,223.184 324.414 C 218.665 324.414,216.857 324.455,219.167 324.504 M175.863 362.289 C 175.866 362.935,175.926 363.164,175.996 362.799 C 176.066 362.434,176.064 361.906,175.990 361.625 C 175.917 361.345,175.859 361.643,175.863 362.289 M123.037 365.573 C 123.320 365.647,123.782 365.647,124.065 365.573 C 124.347 365.499,124.116 365.439,123.551 365.439 C 122.986 365.439,122.755 365.499,123.037 365.573 " stroke="none" fill="#edab76" fill-rule="evenodd"/><path id="path4" d="M153.558 175.422 C 178.698 175.463,219.835 175.463,244.974 175.422 C 270.114 175.380,249.545 175.347,199.266 175.347 C 148.988 175.347,128.419 175.380,153.558 175.422 M250.398 351.871 C 250.398 352.436,250.459 352.667,250.532 352.384 C 250.606 352.102,250.606 351.640,250.532 351.357 C 250.459 351.075,250.398 351.306,250.398 351.871 M137.763 369.626 C 137.764 373.338,137.806 374.816,137.857 372.911 C 137.908 371.005,137.908 367.968,137.856 366.161 C 137.805 364.354,137.763 365.913,137.763 369.626 M154.295 367.632 C 154.660 367.703,155.189 367.700,155.469 367.626 C 155.750 367.553,155.451 367.496,154.806 367.499 C 154.160 367.502,153.930 367.562,154.295 367.632 M263.316 379.659 C 263.599 379.733,264.061 379.733,264.343 379.659 C 264.626 379.586,264.395 379.525,263.830 379.525 C 263.265 379.525,263.034 379.586,263.316 379.659 " stroke="none" fill="#e9904c" fill-rule="evenodd"/><path id="path5" d="M366.976 285.987 C 366.976 296.801,367.013 301.183,367.058 295.723 C 367.103 290.264,367.103 281.416,367.058 276.061 C 367.013 270.706,366.976 275.172,366.976 285.987 " stroke="none" fill="#ac6424" fill-rule="evenodd"/><path id="path6" d="M101.962 164.417 L 101.101 165.371 102.054 164.509 C 102.943 163.705,103.143 163.463,102.916 163.463 C 102.866 163.463,102.437 163.892,101.962 164.417 M264.930 347.102 C 268.199 347.149,273.547 347.149,276.816 347.102 C 280.084 347.054,277.410 347.016,270.873 347.016 C 264.336 347.016,261.662 347.054,264.930 347.102 M171.093 351.082 C 171.093 351.133,171.522 351.562,172.047 352.036 L 173.001 352.898 172.139 351.944 C 171.335 351.055,171.093 350.856,171.093 351.082 " stroke="none" fill="#f4bc88" fill-rule="evenodd"/><path id="path7" d="M89.509 56.786 L 33.016 113.280 76.924 113.280 C 124.928 113.280,123.206 113.337,128.206 111.568 C 137.503 108.278,144.588 99.419,145.849 89.508 C 146.068 87.792,146.141 73.485,146.084 43.653 L 146.001 0.293 89.509 56.786 M2.743 305.892 C 2.942 306.035,2.752 306.083,2.283 306.008 C 1.844 305.938,1.555 305.994,1.640 306.132 C 1.793 306.379,1.375 306.497,0.669 306.407 C 0.471 306.382,0.232 306.673,0.136 307.055 C -0.166 308.257,0.408 311.665,0.912 311.665 C 1.056 311.665,1.158 311.764,1.139 311.886 C 1.120 312.007,1.137 312.205,1.176 312.326 C 1.215 312.447,1.280 312.678,1.321 312.839 C 1.361 313.001,1.427 313.199,1.467 313.280 C 1.508 313.360,1.568 313.525,1.602 313.646 C 1.636 313.767,1.817 314.238,2.006 314.693 C 2.194 315.147,2.347 315.609,2.346 315.720 C 2.345 315.830,2.734 316.911,3.209 318.122 C 3.684 319.332,5.082 323.029,6.315 326.336 C 7.548 329.643,8.695 332.434,8.864 332.539 C 9.034 332.644,9.082 332.877,8.971 333.056 C 8.860 333.235,8.923 333.382,9.112 333.382 C 9.300 333.382,9.378 333.580,9.285 333.822 C 9.192 334.065,9.258 334.263,9.432 334.263 C 9.605 334.263,9.671 334.461,9.578 334.703 C 9.485 334.945,9.537 335.143,9.694 335.143 C 9.850 335.143,9.979 335.308,9.980 335.510 C 9.981 335.712,10.173 336.244,10.408 336.693 C 10.694 337.242,10.717 337.442,10.479 337.303 C 10.284 337.190,10.339 337.350,10.600 337.660 C 10.861 337.971,11.015 338.390,10.942 338.591 C 10.869 338.793,10.944 338.958,11.109 338.958 C 11.274 338.958,11.398 339.189,11.385 339.472 C 11.360 340.038,15.735 351.822,16.162 352.337 C 16.309 352.514,16.342 352.745,16.236 352.852 C 16.130 352.958,16.211 353.045,16.417 353.045 C 16.625 353.045,16.717 353.236,16.625 353.476 C 16.534 353.713,16.571 353.975,16.706 354.059 C 16.842 354.142,17.257 355.170,17.629 356.342 C 18.001 357.515,18.413 358.599,18.544 358.753 C 18.675 358.906,18.782 359.216,18.782 359.442 C 18.782 359.668,18.962 360.269,19.182 360.777 C 19.809 362.224,20.390 363.734,22.024 368.158 C 22.859 370.418,23.652 372.309,23.787 372.359 C 23.921 372.410,23.959 372.641,23.870 372.873 C 23.781 373.105,23.850 373.294,24.024 373.294 C 24.198 373.294,24.264 373.492,24.171 373.734 C 24.078 373.977,24.148 374.175,24.327 374.175 C 24.505 374.175,24.636 374.274,24.617 374.395 C 24.598 374.516,24.614 374.714,24.653 374.835 C 24.693 374.956,24.758 375.187,24.798 375.348 C 24.839 375.510,24.905 375.708,24.945 375.789 C 24.985 375.869,25.046 376.034,25.080 376.156 C 25.113 376.277,25.295 376.747,25.483 377.202 C 25.671 377.656,25.825 378.151,25.825 378.302 C 25.825 378.453,25.941 378.577,26.082 378.577 C 26.223 378.577,26.344 378.874,26.350 379.237 C 26.364 380.057,30.809 391.893,31.154 392.028 C 31.292 392.082,31.341 392.230,31.263 392.357 C 31.184 392.484,31.374 392.881,31.685 393.239 C 31.996 393.598,32.291 393.978,32.340 394.084 C 32.543 394.526,34.861 395.867,35.950 396.173 C 36.814 396.416,80.265 396.480,200.587 396.417 L 364.050 396.332 365.336 395.598 C 366.043 395.194,366.926 394.696,367.299 394.490 C 368.061 394.069,369.084 392.047,370.080 388.995 C 370.449 387.865,370.877 386.775,371.031 386.574 C 371.185 386.372,371.213 386.207,371.093 386.207 C 370.973 386.207,371.022 386.030,371.201 385.813 C 371.381 385.596,371.434 385.325,371.319 385.210 C 371.204 385.095,371.252 384.909,371.425 384.797 C 371.598 384.685,373.219 380.631,375.027 375.789 C 376.835 370.946,378.693 365.994,379.155 364.784 C 381.753 357.985,382.477 356.081,383.731 352.751 C 384.490 350.734,385.133 348.882,385.160 348.638 C 385.186 348.393,385.283 348.062,385.375 347.904 C 385.467 347.745,385.777 346.889,386.064 346.001 C 386.352 345.114,386.674 344.321,386.781 344.241 C 386.888 344.160,387.477 342.707,388.089 341.012 C 388.702 339.318,389.277 337.733,389.367 337.491 C 389.457 337.249,389.554 336.985,389.581 336.904 C 389.609 336.823,389.796 336.361,389.998 335.877 C 390.200 335.393,391.423 332.157,392.716 328.687 C 394.009 325.216,395.400 321.524,395.807 320.481 C 396.214 319.437,396.911 317.589,397.355 316.372 C 397.800 315.155,398.577 313.061,399.082 311.719 C 400.192 308.767,400.222 305.848,399.136 306.520 C 398.999 306.604,398.818 306.492,398.733 306.271 C 398.634 306.013,398.281 305.916,397.749 306.002 C 397.265 306.080,397.060 306.034,397.257 305.892 C 397.444 305.759,308.678 305.649,200.000 305.649 C 91.322 305.649,2.556 305.759,2.743 305.892 M162.884 323.710 C 166.823 324.195,175.056 326.492,176.038 327.381 C 176.180 327.509,171.652 338.958,171.459 338.958 C 171.373 338.958,170.120 338.490,168.674 337.918 C 160.035 334.502,153.058 334.972,153.058 338.969 C 153.058 340.821,154.105 341.621,160.822 344.904 C 171.842 350.290,174.647 352.900,175.803 358.848 C 177.301 366.548,173.674 373.765,166.544 377.273 C 159.595 380.692,147.370 380.565,139.284 376.989 L 137.638 376.261 137.638 369.642 C 137.638 365.256,137.741 363.023,137.943 363.023 C 138.111 363.023,138.775 363.292,139.420 363.621 C 147.455 367.720,158.484 368.587,160.557 365.283 C 162.210 362.647,160.623 360.862,153.866 357.755 C 142.918 352.722,139.495 349.467,138.323 342.971 C 136.007 330.127,146.724 321.722,162.884 323.710 M272.028 324.157 C 275.081 324.691,278.682 325.703,280.493 326.534 L 281.666 327.073 279.305 332.891 C 277.434 337.504,276.848 338.678,276.477 338.560 C 276.219 338.477,275.129 338.077,274.053 337.671 C 268.907 335.727,261.538 335.420,258.076 337.006 C 253.098 339.286,250.780 344.004,250.774 351.871 C 250.765 363.193,255.549 368.167,265.448 367.126 C 266.898 366.973,268.184 366.846,268.305 366.843 C 268.426 366.840,268.525 364.992,268.525 362.737 L 268.525 358.635 263.756 358.555 L 258.988 358.474 258.908 352.678 L 258.828 346.882 270.867 346.882 L 282.905 346.882 282.905 361.570 L 282.905 376.259 281.875 376.689 C 275.426 379.384,259.699 380.548,253.244 378.807 C 242.838 376.002,236.724 368.394,235.345 356.537 C 232.667 333.495,248.011 319.950,272.028 324.157 M195.555 325.825 C 195.797 326.673,197.583 333.309,199.526 340.572 C 202.612 352.114,203.582 356.030,204.797 361.849 C 204.969 362.672,205.086 362.893,205.107 362.436 C 205.204 360.341,207.292 351.690,210.810 338.811 L 214.737 324.431 223.176 324.353 C 229.884 324.292,231.586 324.352,231.477 324.647 C 231.402 324.851,227.410 337.036,222.606 351.724 C 217.803 366.412,213.739 378.595,213.577 378.797 C 213.048 379.452,196.431 379.313,196.083 378.650 C 195.756 378.028,178.430 324.930,178.430 324.552 C 178.430 324.398,181.960 324.285,186.773 324.285 L 195.116 324.285 195.555 325.825 M126.599 365.786 C 131.674 367.313,133.173 374.687,129.104 378.110 C 125.323 381.292,118.202 380.189,116.230 376.115 C 113.111 369.672,119.236 363.570,126.599 365.786 " stroke="none" fill="#c14406" fill-rule="evenodd"/><path id="path8" d="M153.705 379.664 C 154.068 379.734,154.663 379.734,155.026 379.664 C 155.389 379.594,155.092 379.537,154.365 379.537 C 153.639 379.537,153.342 379.594,153.705 379.664 M261.412 379.665 C 261.777 379.735,262.305 379.732,262.586 379.659 C 262.867 379.585,262.568 379.528,261.922 379.531 C 261.277 379.534,261.047 379.594,261.412 379.665 " stroke="none" fill="#ec9c54" fill-rule="evenodd"/></g></svg>